<?xml version="1.0" encoding="UTF-8" standalone="no"?>
<svg width="48px" height="64px" viewBox="0 0 48 64" version="1.1" xmlns="http://www.w3.org/2000/svg" xmlns:xlink="http://www.w3.org/1999/xlink">
    <!-- Generator: Sketch 3.8.3 (29802) - http://www.bohemiancoding.com/sketch -->
    <title>about-sprite</title>
    <desc>Created with Sketch.</desc>
    <defs></defs>
    <g id="Symbols" stroke="none" stroke-width="1" fill="none" fill-rule="evenodd">
        <g id="about-sprite">
            <g id="About-Icon">
                <path d="M24,31 L24,31 C15.7157288,31 9,24.2842712 9,16 C9,7.71572875 15.7157288,1 24,1 C32.2842712,1 39,7.71572875 39,16 C39,24.2842712 32.2842712,31 24,31 L24,31 Z" id="Mask" stroke="#000000" stroke-width="1"></path>
                <path d="M26.1899066,31.3464992 C25.0873641,26.8868232 24.8316022,21.734336 25.2886529,18.9984518 L21.5,19 L20.5001906,19 L20.5,18.0001271 C20.5000229,17.941999 20.5008599,17.8455142 20.5034135,17.7038656 C20.5075954,17.471905 20.5151039,17.2040029 20.5267599,16.9031244 C20.5598974,16.0477413 20.6194901,15.0963366 20.712158,14.0725434 C20.9770782,11.1457087 21.4543519,8.21740935 22.1996777,5.47391189 C22.6906042,3.66684204 23.2838063,1.99962293 23.9896915,0.500003355 C23.9931274,0.500001118 23.9965636,0.5 24,0.5 C24.363739,0.5 24.7245517,0.512529217 25.08203,0.537179616 C21.498052,7.78298372 21.5,18 21.5,18 L26.5406504,18 C26.2405905,18.1475323 25.3914392,24.069984 27.1771689,31.174074 C26.8517089,31.2418726 26.5225049,31.2994643 26.1899066,31.3464992 Z" id="Combined-Shape" fill="#000000" fill-rule="evenodd"></path>
                <path d="M16.0609756,21 C17.4749535,23.6683331 20.4951912,25.5 23.6219512,25.5 C27.5023083,25.5 30.531277,23.6557255 31.9390244,21" id="Mask" stroke="#000000" stroke-width="1.1" stroke-linecap="round"></path>
                <path d="M17,25.5 C17.2761424,25.5 17.5,25.2761424 17.5,25 C17.5,24.7238576 17.2761424,24.5 17,24.5 C16.7238576,24.5 16.5,24.7238576 16.5,25 C16.5,25.2761424 16.7238576,25.5 17,25.5 Z M20,27.5 C20.2761424,27.5 20.5,27.2761424 20.5,27 C20.5,26.7238576 20.2761424,26.5 20,26.5 C19.7238576,26.5 19.5,26.7238576 19.5,27 C19.5,27.2761424 19.7238576,27.5 20,27.5 Z M21,23 C21.2761424,23 21.5,22.7761424 21.5,22.5 C21.5,22.2238576 21.2761424,22 21,22 C20.7238576,22 20.5,22.2238576 20.5,22.5 C20.5,22.7761424 20.7238576,23 21,23 Z M24,24 C24.2761424,24 24.5,23.7761424 24.5,23.5 C24.5,23.2238576 24.2761424,23 24,23 C23.7238576,23 23.5,23.2238576 23.5,23.5 C23.5,23.7761424 23.7238576,24 24,24 Z M23,21.5 C23.2761424,21.5 23.5,21.2761424 23.5,21 C23.5,20.7238576 23.2761424,20.5 23,20.5 C22.7238576,20.5 22.5,20.7238576 22.5,21 C22.5,21.2761424 22.7238576,21.5 23,21.5 Z M19,21.5 C19.2761424,21.5 19.5,21.2761424 19.5,21 C19.5,20.7238576 19.2761424,20.5 19,20.5 C18.7238576,20.5 18.5,20.7238576 18.5,21 C18.5,21.2761424 18.7238576,21.5 19,21.5 Z M17,19.5 C17.2761424,19.5 17.5,19.2761424 17.5,19 C17.5,18.7238576 17.2761424,18.5 17,18.5 C16.7238576,18.5 16.5,18.7238576 16.5,19 C16.5,19.2761424 16.7238576,19.5 17,19.5 Z M14,18.5 C14.2761424,18.5 14.5,18.2761424 14.5,18 C14.5,17.7238576 14.2761424,17.5 14,17.5 C13.7238576,17.5 13.5,17.7238576 13.5,18 C13.5,18.2761424 13.7238576,18.5 14,18.5 Z M11,16 C11.2761424,16 11.5,15.7761424 11.5,15.5 C11.5,15.2238576 11.2761424,15 11,15 C10.7238576,15 10.5,15.2238576 10.5,15.5 C10.5,15.7761424 10.7238576,16 11,16 Z M14,20.5 C14.2761424,20.5 14.5,20.2761424 14.5,20 C14.5,19.7238576 14.2761424,19.5 14,19.5 C13.7238576,19.5 13.5,19.7238576 13.5,20 C13.5,20.2761424 13.7238576,20.5 14,20.5 Z M23,28 C23.2761424,28 23.5,27.7761424 23.5,27.5 C23.5,27.2238576 23.2761424,27 23,27 C22.7238576,27 22.5,27.2238576 22.5,27.5 C22.5,27.7761424 22.7238576,28 23,28 Z M24.5,30 C24.7761424,30 25,29.7761424 25,29.5 C25,29.2238576 24.7761424,29 24.5,29 C24.2238576,29 24,29.2238576 24,29.5 C24,29.7761424 24.2238576,30 24.5,30 Z M21,29.5 C21.2761424,29.5 21.5,29.2761424 21.5,29 C21.5,28.7238576 21.2761424,28.5 21,28.5 C20.7238576,28.5 20.5,28.7238576 20.5,29 C20.5,29.2761424 20.7238576,29.5 21,29.5 Z M18,28.5 C18.2761424,28.5 18.5,28.2761424 18.5,28 C18.5,27.7238576 18.2761424,27.5 18,27.5 C17.7238576,27.5 17.5,27.7238576 17.5,28 C17.5,28.2761424 17.7238576,28.5 18,28.5 Z M16,27.5 C16.2761424,27.5 16.5,27.2761424 16.5,27 C16.5,26.7238576 16.2761424,26.5 16,26.5 C15.7238576,26.5 15.5,26.7238576 15.5,27 C15.5,27.2761424 15.7238576,27.5 16,27.5 Z M15,23.5 C15.2761424,23.5 15.5,23.2761424 15.5,23 C15.5,22.7238576 15.2761424,22.5 15,22.5 C14.7238576,22.5 14.5,22.7238576 14.5,23 C14.5,23.2761424 14.7238576,23.5 15,23.5 Z M14,25.5 C14.2761424,25.5 14.5,25.2761424 14.5,25 C14.5,24.7238576 14.2761424,24.5 14,24.5 C13.7238576,24.5 13.5,24.7238576 13.5,25 C13.5,25.2761424 13.7238576,25.5 14,25.5 Z M13,23.5 C13.2761424,23.5 13.5,23.2761424 13.5,23 C13.5,22.7238576 13.2761424,22.5 13,22.5 C12.7238576,22.5 12.5,22.7238576 12.5,23 C12.5,23.2761424 12.7238576,23.5 13,23.5 Z M11.5,21 C11.7761424,21 12,20.7761424 12,20.5 C12,20.2238576 11.7761424,20 11.5,20 C11.2238576,20 11,20.2238576 11,20.5 C11,20.7761424 11.2238576,21 11.5,21 Z M11,18.5 C11.2761424,18.5 11.5,18.2761424 11.5,18 C11.5,17.7238576 11.2761424,17.5 11,17.5 C10.7238576,17.5 10.5,17.7238576 10.5,18 C10.5,18.2761424 10.7238576,18.5 11,18.5 Z" id="Combined-Shape" fill="#000000" fill-rule="evenodd"></path>
                <rect id="eye" fill="#000000" fill-rule="evenodd" x="17" y="9.5" width="1.5" height="3.75" rx="0.75"></rect>
                <rect id="eye" fill="#000000" fill-rule="evenodd" x="29.5" y="9.5" width="1.5" height="3.75" rx="0.75"></rect>
            </g>
            <g id="About-Icon---Selected" transform="translate(0.000000, 32.000000)">
                <path d="M27.1771689,31.174074 C26.1516382,31.3877087 25.0889326,31.5 24,31.5 C15.4395864,31.5 8.5,24.5604136 8.5,16 C8.5,7.43958638 15.4395864,0.5 24,0.5 C24.363739,0.5 24.7245517,0.512529217 25.08203,0.537179616 C21.498052,7.78298372 21.5,18 21.5,18 L26.5406504,18 C26.2405905,18.1475323 25.3914392,24.069984 27.1771689,31.174074 Z" id="Combined-Shape" fill="#0076FF" fill-rule="evenodd"></path>
                <path d="M27.1771689,31.174074 C34.2136309,29.7082643 39.5,23.471481 39.5,16 C39.5,7.80332542 33.1376219,1.09266386 25.08203,0.537179616 C21.498052,7.78298372 21.5,18 21.5,18 L26.5406504,18 C26.2405905,18.1475323 25.3914392,24.069984 27.1771689,31.174074 Z" id="Combined-Shape" fill="#7FD7FF" fill-rule="evenodd"></path>
                <path d="M16.0609756,21 C17.4749535,23.6683331 20.4951912,25.5 23.6219512,25.5 C27.5023083,25.5 30.531277,23.6557255 31.9390244,21" id="Mask" stroke="#000000" stroke-width="1.1" stroke-linecap="round"></path>
                <path d="M17,25.5 C17.2761424,25.5 17.5,25.2761424 17.5,25 C17.5,24.7238576 17.2761424,24.5 17,24.5 C16.7238576,24.5 16.5,24.7238576 16.5,25 C16.5,25.2761424 16.7238576,25.5 17,25.5 Z M20,27.5 C20.2761424,27.5 20.5,27.2761424 20.5,27 C20.5,26.7238576 20.2761424,26.5 20,26.5 C19.7238576,26.5 19.5,26.7238576 19.5,27 C19.5,27.2761424 19.7238576,27.5 20,27.5 Z M21,23 C21.2761424,23 21.5,22.7761424 21.5,22.5 C21.5,22.2238576 21.2761424,22 21,22 C20.7238576,22 20.5,22.2238576 20.5,22.5 C20.5,22.7761424 20.7238576,23 21,23 Z M24,24 C24.2761424,24 24.5,23.7761424 24.5,23.5 C24.5,23.2238576 24.2761424,23 24,23 C23.7238576,23 23.5,23.2238576 23.5,23.5 C23.5,23.7761424 23.7238576,24 24,24 Z M23,21.5 C23.2761424,21.5 23.5,21.2761424 23.5,21 C23.5,20.7238576 23.2761424,20.5 23,20.5 C22.7238576,20.5 22.5,20.7238576 22.5,21 C22.5,21.2761424 22.7238576,21.5 23,21.5 Z M19,21.5 C19.2761424,21.5 19.5,21.2761424 19.5,21 C19.5,20.7238576 19.2761424,20.5 19,20.5 C18.7238576,20.5 18.5,20.7238576 18.5,21 C18.5,21.2761424 18.7238576,21.5 19,21.5 Z M17,19.5 C17.2761424,19.5 17.5,19.2761424 17.5,19 C17.5,18.7238576 17.2761424,18.5 17,18.5 C16.7238576,18.5 16.5,18.7238576 16.5,19 C16.5,19.2761424 16.7238576,19.5 17,19.5 Z M14,18.5 C14.2761424,18.5 14.5,18.2761424 14.5,18 C14.5,17.7238576 14.2761424,17.5 14,17.5 C13.7238576,17.5 13.5,17.7238576 13.5,18 C13.5,18.2761424 13.7238576,18.5 14,18.5 Z M11,16 C11.2761424,16 11.5,15.7761424 11.5,15.5 C11.5,15.2238576 11.2761424,15 11,15 C10.7238576,15 10.5,15.2238576 10.5,15.5 C10.5,15.7761424 10.7238576,16 11,16 Z M14,20.5 C14.2761424,20.5 14.5,20.2761424 14.5,20 C14.5,19.7238576 14.2761424,19.5 14,19.5 C13.7238576,19.5 13.5,19.7238576 13.5,20 C13.5,20.2761424 13.7238576,20.5 14,20.5 Z M23,28 C23.2761424,28 23.5,27.7761424 23.5,27.5 C23.5,27.2238576 23.2761424,27 23,27 C22.7238576,27 22.5,27.2238576 22.5,27.5 C22.5,27.7761424 22.7238576,28 23,28 Z M24.5,30 C24.7761424,30 25,29.7761424 25,29.5 C25,29.2238576 24.7761424,29 24.5,29 C24.2238576,29 24,29.2238576 24,29.5 C24,29.7761424 24.2238576,30 24.5,30 Z M21,29.5 C21.2761424,29.5 21.5,29.2761424 21.5,29 C21.5,28.7238576 21.2761424,28.5 21,28.5 C20.7238576,28.5 20.5,28.7238576 20.5,29 C20.5,29.2761424 20.7238576,29.5 21,29.5 Z M18,28.5 C18.2761424,28.5 18.5,28.2761424 18.5,28 C18.5,27.7238576 18.2761424,27.5 18,27.5 C17.7238576,27.5 17.5,27.7238576 17.5,28 C17.5,28.2761424 17.7238576,28.5 18,28.5 Z M16,27.5 C16.2761424,27.5 16.5,27.2761424 16.5,27 C16.5,26.7238576 16.2761424,26.5 16,26.5 C15.7238576,26.5 15.5,26.7238576 15.5,27 C15.5,27.2761424 15.7238576,27.5 16,27.5 Z M15,23.5 C15.2761424,23.5 15.5,23.2761424 15.5,23 C15.5,22.7238576 15.2761424,22.5 15,22.5 C14.7238576,22.5 14.5,22.7238576 14.5,23 C14.5,23.2761424 14.7238576,23.5 15,23.5 Z M14,25.5 C14.2761424,25.5 14.5,25.2761424 14.5,25 C14.5,24.7238576 14.2761424,24.5 14,24.5 C13.7238576,24.5 13.5,24.7238576 13.5,25 C13.5,25.2761424 13.7238576,25.5 14,25.5 Z M13,23.5 C13.2761424,23.5 13.5,23.2761424 13.5,23 C13.5,22.7238576 13.2761424,22.5 13,22.5 C12.7238576,22.5 12.5,22.7238576 12.5,23 C12.5,23.2761424 12.7238576,23.5 13,23.5 Z M11.5,21 C11.7761424,21 12,20.7761424 12,20.5 C12,20.2238576 11.7761424,20 11.5,20 C11.2238576,20 11,20.2238576 11,20.5 C11,20.7761424 11.2238576,21 11.5,21 Z M11,18.5 C11.2761424,18.5 11.5,18.2761424 11.5,18 C11.5,17.7238576 11.2761424,17.5 11,17.5 C10.7238576,17.5 10.5,17.7238576 10.5,18 C10.5,18.2761424 10.7238576,18.5 11,18.5 Z" id="Combined-Shape" fill="#000000" fill-rule="evenodd"></path>
                <rect id="eye" fill="#000000" fill-rule="evenodd" x="17" y="9.5" width="1.5" height="3.75" rx="0.75"></rect>
                <rect id="eye" fill="#000000" fill-rule="evenodd" x="29.5" y="9.5" width="1.5" height="3.75" rx="0.75"></rect>
            </g>
        </g>
    </g>
</svg>