<?xml version="1.0" encoding="UTF-8" standalone="no"?>
<svg width="118px" height="72px" viewBox="0 0 118 72" version="1.1" xmlns="http://www.w3.org/2000/svg" xmlns:xlink="http://www.w3.org/1999/xlink">
    <!-- Generator: Sketch 3.8.3 (29802) - http://www.bohemiancoding.com/sketch -->
    <title>Untitled</title>
    <desc>Created with Sketch.</desc>
    <defs></defs>
    <g id="App" stroke="none" stroke-width="1" fill="none" fill-rule="evenodd">
        <g id="Desktop" transform="translate(-448.000000, -703.000000)" fill="#000000">
            <path d="M460.3824,713.049813 C460.0813,713.764913 459.8668,714.315213 459.741,714.692713 C459.6172,715.064013 459.4901,715.536213 459.3613,716.106513 C459.225,716.710113 459.0693,717.391213 458.8942,718.149913 C458.7205,718.902613 458.5371,719.723413 458.3438,720.612313 C458.1493,721.507013 457.9354,722.479413 457.7021,723.529313 C457.4698,724.574713 457.2277,725.688113 456.976,726.869513 C456.7241,728.051413 456.4625,729.301413 456.1911,730.619313 C455.9187,731.942313 455.6366,733.284713 455.3448,734.646513 C455.0528,736.009213 454.7511,737.381613 454.4396,738.763613 C454.1293,740.140613 453.8287,741.488413 453.5379,742.807113 C453.2483,744.119613 452.9781,745.412713 452.7273,746.686313 C452.4757,747.963313 452.2436,749.182013 452.0309,750.342213 C451.8187,751.499713 451.6258,752.618313 451.4523,753.697813 C451.2789,754.777313 451.1247,755.808113 450.9899,756.790113 C450.8561,757.765013 450.7512,758.671513 450.675,759.509213 C450.5978,760.358713 450.5302,761.159713 450.4724,761.911913 C450.4144,762.665013 450.3662,763.340313 450.3277,763.937613 C450.2887,764.541813 450.2497,765.116913 450.2107,765.663013 C450.1725,766.197313 450.144,766.682813 450.125,767.119113 C450.1062,767.551413 450.0969,767.924913 450.0969,768.238513 L450.0969,769.024813 L450.0969,769.374313 L448,769.387213 L448,768.500613 L448,767.131813 L448,765.035013 L448,762.413913 C448,761.494813 448.0098,760.498313 448.0293,759.424313 C448.0489,758.344913 448.0882,757.226813 448.147,756.070113 C448.2058,754.914113 448.2841,753.729213 448.382,752.515213 C448.4798,751.302013 448.5972,750.059813 448.7341,748.788613 C448.8718,747.510113 449.039,746.241313 449.2357,744.982213 C449.4316,743.728613 449.6567,742.426813 449.9111,741.076613 C450.1666,739.720513 450.4517,738.383713 450.7662,737.066513 C451.0792,735.756113 451.4116,734.445813 451.7636,733.135513 C452.1156,731.825313 452.4871,730.515213 452.8782,729.205213 C453.2706,727.890713 453.6923,726.576413 454.1435,725.262213 C454.5957,723.944913 455.0774,722.647213 455.5887,721.369013 C456.1005,720.089513 456.6226,718.877813 457.1552,717.733813 C457.6856,716.594313 458.2261,715.493713 458.7767,714.431913 C459.331,713.362813 459.8863,712.371313 460.4427,711.457113 C461.001,710.539913 461.551,709.710013 462.0931,708.967013 C462.6411,708.216113 463.1916,707.543213 463.7453,706.948513 C464.2923,706.361013 464.8218,705.841713 465.3345,705.390613 C465.8566,704.931013 466.3913,704.522213 466.9386,704.164313 C467.5153,703.787313 468.0807,703.504513 468.6369,703.319113 C469.1901,703.134713 469.7207,703.028613 470.2291,703.004413 C470.7925,702.977613 471.3369,703.072913 471.8508,703.289313 C472.4105,703.524913 472.8834,703.926213 473.2639,704.469713 C473.6197,704.978113 473.875,705.598113 474.0392,706.325313 C474.1978,707.027313 474.2523,707.855713 474.2096,708.816113 C474.1685,709.740913 474.0462,710.749613 473.8436,711.843613 C473.6438,712.922313 473.3751,714.077013 473.0375,715.308213 C472.6989,716.543013 472.2815,717.825013 471.7855,719.154313 C471.2909,720.479813 470.7469,721.785513 470.1534,723.071413 C469.5654,724.345313 468.9385,725.638413 468.2725,726.950713 C467.6017,728.272713 466.9009,729.545913 466.1702,730.770413 C465.446,731.983913 464.7312,733.139313 464.0258,734.236613 C463.3186,735.336713 462.6303,736.359213 461.9608,737.304413 C461.29,738.251513 460.6475,739.111513 460.033,739.884513 C459.4305,740.642513 458.8571,741.361713 458.3127,742.042113 C457.7589,742.734413 457.2529,743.339713 456.7941,743.858313 C456.334,744.378413 455.9021,744.840413 455.4979,745.244713 C454.9203,745.822313 454.9203,745.822313 454.3621,746.380513 C453.979,746.763513 453.605,747.117413 453.2397,747.442013 C452.8775,747.764013 452.2577,748.285413 451.3743,749.011813 C450.927,749.379513 450.2663,749.315113 449.8986,748.867813 C449.5309,748.420513 449.5953,747.759913 450.0426,747.392113 C450.9065,746.681813 451.5099,746.174113 451.8466,745.874813 C452.1803,745.578213 452.5246,745.252513 452.8794,744.897813 C453.4376,744.339613 453.4376,744.339613 454.0152,743.762013 C454.3875,743.389613 454.7905,742.958513 455.2235,742.469013 C455.6578,741.978113 456.142,741.399013 456.6754,740.732213 C457.2183,740.053613 457.7904,739.336113 458.3916,738.579713 C458.9809,737.838313 459.6004,737.009213 460.2498,736.092413 C460.9005,735.173713 461.5713,734.177113 462.262,733.102713 C462.9545,732.025413 463.6571,730.889813 464.3696,729.695913 C465.0756,728.512913 465.7533,727.281513 466.4027,726.001813 C467.057,724.712513 467.6726,723.442713 468.2495,722.192713 C468.821,720.954613 469.3448,719.697513 469.821,718.421313 C470.2957,717.149113 470.6937,715.926513 471.0153,714.753713 C471.3378,713.577513 471.5933,712.480013 471.7818,711.461813 C471.9675,710.459013 472.0782,709.545613 472.1148,708.723013 C472.1498,707.936113 472.1072,707.288913 471.9939,706.787113 C471.8863,706.310613 471.7339,705.940513 471.5461,705.672213 C471.383,705.439113 471.2151,705.296713 471.0371,705.221813 C470.8132,705.127513 470.581,705.086913 470.3289,705.098913 C470.0219,705.113513 469.6788,705.182113 469.3,705.308413 C468.9243,705.433613 468.519,705.636313 468.0861,705.919313 C467.6238,706.221613 467.1683,706.569913 466.7197,706.964713 C466.2616,707.367813 465.7815,707.838713 465.28,708.377313 C464.7853,708.908613 464.2874,709.517213 463.787,710.203013 C463.2807,710.896713 462.7628,711.678313 462.2338,712.547313 C461.7031,713.419313 461.1711,714.369313 460.6381,715.397113 C460.1015,716.432113 459.5741,717.506013 459.0561,718.618713 C458.5402,719.726913 458.0334,720.903313 457.5356,722.147713 C457.0373,723.393513 456.5676,724.658613 456.1267,725.943013 C455.6848,727.230413 455.2717,728.517813 454.8874,729.804913 C454.5019,731.096513 454.1356,732.388113 453.7887,733.679513 C453.4417,734.970913 453.1141,736.262213 452.8057,737.553513 C452.499,738.837913 452.221,740.141613 451.9717,741.464813 C451.7213,742.793913 451.4999,744.074313 451.3074,745.305913 C451.1159,746.532013 450.953,747.767713 450.8189,749.013213 C450.684,750.265913 450.5684,751.489513 450.4721,752.683813 C450.3758,753.877313 450.2988,755.041613 450.2411,756.176613 C450.1834,757.310913 450.145,758.406213 450.1258,759.462413 C450.1065,760.524113 450.0969,761.508013 450.0969,762.413913 L450.0969,765.035013 L450.0969,767.131813 L450.0969,768.500613 L450.0969,769.228713 C448,769.387113 448,769.387113 448,769.386913 L448,769.024813 L448,768.238513 C448,767.891913 448.0101,767.488813 448.0301,767.028013 C448.05,766.571213 448.0797,766.066513 448.1192,765.513613 C448.1578,764.972413 448.1965,764.402113 448.2352,763.802613 C448.2743,763.196113 448.3231,762.512313 448.3817,761.751013 C448.4403,760.988913 448.5087,760.178313 448.5868,759.319313 C448.6659,758.448513 448.7745,757.510513 448.9126,756.505013 C449.0496,755.506713 449.2061,754.460113 449.3821,753.365113 C449.558,752.270113 449.7535,751.136513 449.9684,749.964113 C450.1828,748.794613 450.4167,747.566913 450.67,746.281113 C450.9239,744.991813 451.1973,743.683313 451.4902,742.355413 C451.7818,741.033613 452.0831,739.682713 452.3941,738.302713 C452.7039,736.927813 453.0041,735.562613 453.2945,734.207113 C453.5852,732.850813 453.8661,731.513913 454.1373,730.196413 C454.4096,728.873913 454.6722,727.619213 454.9252,726.432513 C455.1782,725.245313 455.4215,724.125913 455.6552,723.074413 C455.8878,722.027513 456.101,721.058313 456.2948,720.166913 C456.4899,719.269613 456.6753,718.440113 456.8511,717.678413 C457.0255,716.922713 457.1804,716.244813 457.316,715.644613 C457.459,715.011113 457.6037,714.473813 457.7517,714.029613 C457.8977,713.591713 458.1297,712.996413 458.4499,712.236113 L458.9159,711.129413 C459.1406,710.595713 459.7553,710.345313 460.289,710.570013 C460.8226,710.794713 461.0731,711.409413 460.8484,711.943113 L460.3824,713.049813 Z M459.0725,755.800113 L459.422,756.499113 C459.5149,756.684913 459.5965,756.824513 459.661,756.913613 C459.6813,756.941613 459.6954,756.958513 459.7007,756.963813 C459.6833,756.946413 459.6535,756.923013 459.605,756.896013 C459.6702,756.932213 459.7604,756.962313 459.8798,756.982213 C459.9794,756.998813 460.1151,756.993813 460.2881,756.959213 C460.4841,756.920013 460.6973,756.844313 460.9277,756.729113 C461.1892,756.598413 461.4646,756.431513 461.753,756.227913 C462.0405,756.024913 462.3423,755.774913 462.657,755.477613 C462.9718,755.180313 463.28,754.845713 463.5813,754.473513 C463.8863,754.096813 464.184,753.681813 464.4742,753.228413 C464.7738,752.760213 465.0545,752.292413 465.3162,751.825113 C465.5721,751.368113 465.8101,750.892213 466.0301,750.397213 C466.2559,749.889113 466.4626,749.391013 466.6503,748.903113 C466.8373,748.416813 467.0054,747.940613 467.1545,747.474713 C467.3053,747.003313 467.4369,746.561513 467.5493,746.149613 C467.6596,745.745113 467.7511,745.360713 467.8239,744.996713 C467.8988,744.622213 467.9643,744.257613 468.0203,743.903013 C468.0768,743.544813 468.1238,743.216113 468.1611,742.917213 C468.1975,742.626213 468.2247,742.345413 468.2427,742.074613 C468.2549,741.892913 468.2443,741.755313 468.2191,741.663013 C468.1915,741.562013 468.1637,741.499213 468.1445,741.472413 C468.2057,741.558113 468.335,741.644313 468.4999,741.667913 C468.5784,741.679113 468.6152,741.672213 468.608,741.675413 C468.5479,741.702113 468.4421,741.776213 468.305,741.900913 C468.1329,742.057313 467.9231,742.283813 467.6809,742.577913 C467.445,742.864413 467.2137,743.198513 466.9879,743.580613 C466.745,743.991713 466.5112,744.412413 466.2868,744.842713 C466.0621,745.273313 465.8467,745.713513 465.6405,746.163313 C465.432,746.618213 465.233,747.073013 465.0436,747.527613 C464.8543,747.982013 464.6745,748.436313 464.5042,748.890413 C464.3405,749.326913 464.2049,749.742813 464.0971,750.137813 C463.9877,750.539013 463.8968,750.929913 463.8243,751.310413 C463.7497,751.702313 463.6844,752.094013 463.6285,752.485713 C463.5823,752.809113 463.5748,753.099513 463.6035,753.357413 C463.6337,753.629713 463.6844,753.861413 463.7527,754.052513 C463.7801,754.129213 463.7975,754.153713 463.8034,754.157813 C463.8361,754.180713 463.8867,754.197613 463.9758,754.203913 C464.0589,754.209913 464.2039,754.178113 464.4072,754.087813 C464.69,753.962113 465.0325,753.761613 465.4284,753.486213 C465.8219,753.212513 466.2212,752.873913 466.6254,752.469713 C467.0529,752.042313 467.5014,751.556313 467.9705,751.012113 C468.4412,750.466113 468.9128,749.881413 469.3851,749.258013 C469.8588,748.632613 470.3332,747.968513 470.8082,747.265513 C471.2865,746.557613 471.7651,745.820513 472.244,745.054313 C472.7201,744.292613 473.187,743.501713 473.6446,742.681813 C474.1043,741.858213 474.5545,741.015213 474.9953,740.152813 C475.4376,739.287413 475.8704,738.412313 476.2936,737.527513 C476.718,736.640013 477.1328,735.752513 477.5379,734.865113 C477.9419,733.980313 478.3362,733.085813 478.721,732.181613 C479.1058,731.277213 479.4616,730.411813 479.7883,729.585613 C480.1143,728.760813 480.4113,727.975113 480.6793,727.228713 C480.9513,726.470913 481.2137,725.742213 481.4663,725.042613 C481.718,724.345513 481.9504,723.696913 482.1633,723.096913 C482.3758,722.497913 482.5786,721.918413 482.7718,721.358313 C482.9662,720.794513 483.1412,720.288813 483.2969,719.841313 C483.4555,719.385313 483.6143,718.948613 483.7733,718.531113 C483.9238,718.136213 484.0451,717.800213 484.1371,717.524413 C484.2297,717.246413 484.2938,717.045113 484.3275,716.927213 C484.3217,716.947213 484.3162,716.974713 484.3162,717.069613 C484.3162,717.308313 484.3742,717.539913 484.616,717.781813 C484.9879,718.153713 485.4535,718.153713 485.8044,717.978213 C485.9477,717.906513 486.0264,717.835713 486.0952,717.755513 C486.1116,717.736313 486.1184,717.727113 486.1205,717.723913 C486.1017,717.752213 486.0676,717.810113 486.023,717.892013 C485.9175,718.085413 485.7801,718.360013 485.6132,718.712413 C485.4398,719.078613 485.2273,719.532513 484.9759,720.073913 C484.7342,720.594513 484.4912,721.174213 484.2471,721.812413 C483.9949,722.472113 483.7135,723.209513 483.403,724.024613 C483.0959,724.830713 482.7983,725.646613 482.5104,726.472113 C482.2223,727.298013 481.934,728.162813 481.6455,729.066613 C481.3562,729.973213 481.0668,730.909013 480.7773,731.874013 C480.4874,732.840413 480.2071,733.797113 479.9366,734.744013 C479.6666,735.688913 479.4063,736.633913 479.1556,737.578813 C478.9049,738.523713 478.6736,739.429613 478.4617,740.296513 C478.2508,741.159013 478.0593,742.001913 477.887,742.825113 C477.7129,743.657013 477.5485,744.459713 477.3938,745.233213 C477.2399,746.002313 477.1055,746.712913 476.9904,747.364813 C476.877,748.007913 476.7825,748.631313 476.7071,749.234813 C476.63,749.851513 476.5626,750.419513 476.5049,750.938813 C476.4508,751.426013 476.4239,751.873013 476.4239,752.279113 C476.4239,752.693213 476.4419,753.087213 476.4775,753.461213 C476.508,753.781313 476.5662,754.050813 476.6484,754.270013 C476.7288,754.484313 476.8336,754.674313 476.9637,754.843413 C477.0484,754.953513 477.1587,755.038413 477.3101,755.104613 C477.4976,755.186613 477.7319,755.237313 478.0173,755.250913 C478.3349,755.266013 478.6965,755.234513 479.1015,755.153513 C479.5123,755.071413 479.958,754.928413 480.4376,754.722913 C480.9406,754.507313 481.4758,754.235213 482.0424,753.906213 C482.5937,753.586013 483.1696,753.181113 483.7688,752.690913 C484.3873,752.184913 484.9772,751.660513 485.5388,751.117613 C486.1005,750.574613 486.6537,749.993313 487.1982,749.373713 C487.7441,748.752513 488.2813,748.092813 488.8097,747.394513 C489.3421,746.691013 489.8457,745.987813 490.3205,745.285113 C490.7892,744.591513 491.2101,743.908813 491.5833,743.237013 C491.9645,742.550913 492.3069,741.904113 492.6105,741.296913 C492.9109,740.696113 493.1827,740.105713 493.4259,739.525613 C493.6712,738.940613 493.8876,738.385413 494.0752,737.860213 C494.2572,737.350713 494.4017,736.872013 494.5091,736.424613 C494.6212,735.957513 494.7142,735.520213 494.7883,735.113013 C494.864,734.696213 494.9302,734.299113 494.9868,733.921813 C495.0316,733.623413 495.0387,733.368713 495.0124,733.159013 C494.9848,732.937713 494.9396,732.757113 494.8811,732.616713 C494.8771,732.607213 494.9023,732.635713 494.9432,732.656113 C494.9784,732.673713 495.0032,732.675913 494.978,732.681713 C494.8415,732.713213 494.645,732.798413 494.4001,732.942413 C494.1189,733.107813 493.7914,733.340513 493.4215,733.639913 C493.0623,733.930813 492.6866,734.297713 492.2967,734.740813 C491.8945,735.197813 491.4898,735.712913 491.0832,736.285913 C490.6679,736.871113 490.2715,737.465613 489.8941,738.069513 C489.5149,738.676213 489.145,739.302113 488.7844,739.947413 C488.4295,740.582613 488.1125,741.207213 487.8335,741.821013 C487.5512,742.442213 487.2876,743.072813 487.0429,743.712913 C486.8005,744.346713 486.5962,744.950513 486.4298,745.523713 C486.261,746.104913 486.121,746.646513 486.0095,747.148013 C485.8989,747.645813 485.8066,748.153413 485.7327,748.670613 C485.6598,749.180813 485.6146,749.650913 485.5967,750.080313 C485.5792,750.501013 485.5879,750.901413 485.6225,751.281413 C485.6512,751.597413 485.7203,751.874013 485.8276,752.115413 C485.9423,752.373513 486.0824,752.597613 486.2481,752.790913 C486.4138,752.984313 486.6188,753.161013 486.8662,753.321013 C487.09,753.465913 487.3543,753.574313 487.6647,753.644913 C488.0276,753.727313 488.4202,753.777513 488.8431,753.794413 C489.2866,753.812113 489.73,753.803213 490.1737,753.767813 C490.6017,753.733513 491.0203,753.665213 491.4301,753.562713 C491.875,753.451513 492.3003,753.331313 492.7061,753.202213 C493.0818,753.082613 493.439,752.938113 493.7783,752.768413 C494.1115,752.601813 494.6792,752.244713 495.4571,751.707613 C495.9335,751.378613 496.5865,751.498213 496.9155,751.974713 C497.2445,752.451213 497.1249,753.104113 496.6485,753.433113 C495.7954,754.022113 495.1594,754.422213 494.716,754.643913 C494.2787,754.862613 493.8204,755.048113 493.3419,755.200313 C492.8934,755.343013 492.4256,755.475213 491.9386,755.597013 C491.4164,755.727513 490.8837,755.814513 490.3409,755.857913 C489.8138,755.900113 489.2865,755.910613 488.7593,755.889513 C488.2113,755.867613 487.6915,755.801313 487.2,755.689613 C486.6562,755.566013 486.1633,755.363813 485.727,755.081513 C485.3143,754.814413 484.9562,754.505713 484.656,754.155513 C484.3557,753.805213 484.1075,753.407913 483.9115,752.967113 C483.7082,752.509513 483.5832,752.009513 483.5342,751.471313 C483.4911,750.997113 483.4804,750.504313 483.5017,749.993013 C483.5226,749.490513 483.5745,748.951113 483.657,748.374013 C483.7384,747.804013 483.8403,747.243713 483.9626,746.693113 C484.0841,746.146213 484.2353,745.561713 484.4161,744.939113 C484.5991,744.308613 484.8219,743.650313 485.0843,742.964013 C485.3444,742.283813 485.6245,741.613613 485.9246,740.953313 C486.2281,740.285813 486.5712,739.609513 486.954,738.924513 C487.3312,738.249613 487.7185,737.594113 488.116,736.958213 C488.5151,736.319513 488.9342,735.690913 489.3732,735.072313 C489.8208,734.441613 490.2704,733.869413 490.7225,733.355613 C491.1868,732.828013 491.646,732.379513 492.1022,732.010213 C492.5478,731.649513 492.9581,731.357913 493.337,731.135113 C493.7522,730.890813 494.1382,730.723613 494.5065,730.638613 C494.986,730.527913 495.4574,730.568913 495.8809,730.780713 C496.3101,730.995213 496.6265,731.353813 496.8167,731.810213 C496.9523,732.135813 497.0431,732.498813 497.0931,732.898913 C497.1445,733.310413 497.1322,733.754713 497.0605,734.232913 C497.0006,734.632213 496.9308,735.050513 496.8513,735.488113 C496.77,735.935113 496.6689,736.410313 496.548,736.914013 C496.4224,737.437313 496.2563,737.987613 496.0499,738.565413 C495.8492,739.127413 495.6191,739.717713 495.3596,740.336513 C495.0981,740.960213 494.8068,741.592913 494.4859,742.234713 C494.1682,742.870013 493.8117,743.543513 493.4163,744.255313 C493.0129,744.981413 492.5601,745.716013 492.058,746.459113 C491.562,747.193113 491.0366,747.926713 490.4817,748.659913 C489.9229,749.398413 489.3534,750.097713 488.7733,750.757913 C488.1917,751.419713 487.5993,752.042213 486.9962,752.625213 C486.3928,753.208513 485.7596,753.771313 485.0966,754.313713 C484.4144,754.871913 483.7477,755.340713 483.0953,755.719513 C482.4582,756.089513 481.8479,756.399813 481.2636,756.650213 C480.656,756.910613 480.0727,757.097713 479.5127,757.209713 C478.9469,757.322813 478.4155,757.369113 477.9176,757.345313 C477.3876,757.320113 476.9035,757.215413 476.4697,757.025613 C475.9998,756.820113 475.6054,756.516713 475.3017,756.121913 C475.0435,755.786213 474.8377,755.413213 474.6851,755.006213 C474.5343,754.604113 474.4372,754.155313 474.3901,753.660013 C474.348,753.218413 474.3271,752.758213 474.3271,752.279113 C474.3271,751.792213 474.3585,751.268413 474.4209,750.707213 C474.4797,750.178013 474.5482,749.600613 474.6264,748.974713 C474.7063,748.335713 474.806,747.677613 474.9255,747.000413 C475.0434,746.332213 475.1808,745.606013 475.3376,744.821913 C475.4936,744.042213 475.6592,743.233413 475.8346,742.395613 C476.0118,741.549113 476.2085,740.683513 476.4248,739.798613 C476.64,738.918113 476.8747,737.999013 477.1288,737.041113 C477.3829,736.083413 477.6468,735.125613 477.9204,734.167913 C478.1935,733.212113 478.4763,732.246713 478.7689,731.271513 C479.0618,730.295013 479.3549,729.347513 479.648,728.429113 C479.942,727.507913 480.2362,726.625313 480.5305,725.781513 C480.825,724.937313 481.1293,724.102813 481.4435,723.278113 C481.7543,722.462313 482.036,721.724113 482.2885,721.063613 C482.5493,720.381613 482.811,719.757513 483.0741,719.190913 C483.3275,718.645013 483.5422,718.186413 483.7182,717.814813 C483.9008,717.429413 484.0547,717.121613 484.1822,716.887913 C484.4491,716.398413 484.5361,716.268013 484.8667,716.102713 C485.237,715.917613 485.7172,715.917613 486.0987,716.299113 C486.3503,716.550713 486.4131,716.801813 486.4131,717.069613 C486.4131,717.222713 486.3882,717.347313 486.3436,717.503213 C486.2996,717.657213 486.2278,717.882913 486.1263,718.187413 C486.0241,718.494113 485.893,718.857013 485.7328,719.277613 C485.5812,719.675513 485.4294,720.093113 485.2774,720.530213 C485.1224,720.975813 484.9479,721.479713 484.7541,722.041913 C484.5589,722.607913 484.354,723.193313 484.1394,723.798113 C483.9251,724.401913 483.6915,725.054113 483.4385,725.754813 C483.1863,726.453113 482.9244,727.180613 482.6528,727.937213 C482.3771,728.705113 482.0723,729.511513 481.7382,730.356513 C481.4048,731.199913 481.0422,732.082013 480.6504,733.002613 C480.2586,733.923413 479.8569,734.834513 479.4454,735.735913 C479.0351,736.634713 478.615,737.533413 478.1852,738.432213 C477.7541,739.333613 477.3132,740.225213 476.8624,741.107113 C476.4101,741.992113 475.9478,742.857713 475.4756,743.703813 C475.0012,744.553613 474.5168,745.374213 474.0221,746.165713 C473.5302,746.952713 473.0381,747.710613 472.5456,748.439413 C472.0498,749.173213 471.5535,749.868113 471.0565,750.524213 C470.558,751.182113 470.0588,751.801213 469.5587,752.381213 C469.0571,752.963113 468.5737,753.486813 468.1081,753.952413 C467.6191,754.441413 467.1254,754.860013 466.6258,755.207513 C466.1286,755.553413 465.675,755.818913 465.2588,756.003913 C464.7633,756.224113 464.2869,756.328313 463.8264,756.295413 C463.3718,756.263013 462.9565,756.124513 462.6009,755.875613 C462.2185,755.607913 461.9447,755.224613 461.778,754.757713 C461.6521,754.405213 461.5668,754.015713 461.5194,753.589013 C461.4704,753.147913 461.4824,752.681113 461.5527,752.189113 C461.6132,751.765313 461.6838,751.341713 461.7645,750.918113 C461.8474,750.483113 461.9506,750.039113 462.0742,749.586113 C462.1994,749.126813 462.3551,748.649613 462.5408,748.154213 C462.72,747.676413 462.9091,747.198713 463.1081,746.721213 C463.3069,746.243913 463.5157,745.766713 463.7343,745.289713 C463.9553,744.807513 464.1864,744.335213 464.4277,743.872813 C464.6692,743.409913 464.9209,742.956913 465.1827,742.513813 C465.4618,742.041613 465.7546,741.618513 466.0623,741.244913 C466.3638,740.878813 466.6394,740.581213 466.8945,740.349313 C467.1845,740.085713 467.467,739.887913 467.7564,739.759313 C468.0986,739.607213 468.4461,739.542113 468.7964,739.592113 C469.233,739.654513 469.5953,739.896013 469.8507,740.253613 C470.0257,740.498613 470.1531,740.785313 470.2421,741.111313 C470.3334,741.446213 470.3616,741.813413 470.3349,742.214113 C470.3142,742.525913 470.2831,742.846913 470.2418,743.177213 C470.2015,743.499613 470.1514,743.850413 470.0914,744.230013 C470.0309,744.613213 469.9605,745.005813 469.8801,745.407913 C469.7975,745.820513 469.6949,746.251613 469.5722,746.701313 C469.4516,747.143613 469.3114,747.614413 469.1516,748.113813 C468.99,748.618613 468.8086,749.132613 468.6074,749.655913 C468.4067,750.177613 468.1863,750.708513 467.9462,751.248813 C467.7002,751.802313 467.4334,752.335913 467.1457,752.849713 C466.8637,753.353113 466.5619,753.856113 466.2403,754.358713 C465.9092,754.876113 465.5662,755.354213 465.2111,755.792913 C464.8523,756.236113 464.4809,756.639313 464.0968,757.002113 C463.7126,757.364913 463.3348,757.678013 462.9622,757.941013 C462.5905,758.203313 462.2252,758.424713 461.8654,758.604613 C461.4744,758.800113 461.0858,758.938013 460.6993,759.015313 C460.2899,759.097213 459.9014,759.111613 459.535,759.050513 C459.1885,758.992813 458.8709,758.886913 458.5867,758.729013 C458.1697,758.497413 457.8694,758.082613 457.5465,757.436813 L457.197,756.737913 C456.9381,756.220013 457.148,755.590213 457.6659,755.331213 C458.1838,755.072313 458.8136,755.282213 459.0725,755.800113 L459.0725,755.800113 L459.0725,755.800113 L459.0725,755.800113 Z M458.6375,738.813813 L460.4723,738.464313 C461.6869,738.232913 462.6009,738.050113 463.2111,737.916713 C463.8262,737.782113 464.4999,737.628113 465.2321,737.454713 C465.9673,737.280613 466.7706,737.087013 467.642,736.874013 C468.5187,736.659713 469.4536,736.435713 470.4466,736.202113 C471.4418,735.967913 472.5145,735.724113 473.6647,735.470713 C474.8084,735.218713 475.9812,734.957013 477.1832,734.685613 C478.3853,734.414113 479.6166,734.133013 480.877,733.842113 C481.8235,733.623713 481.8235,733.623713 482.77,733.405213 C483.7165,733.186813 483.7165,733.186813 484.663,732.968413 C485.9163,732.679213 487.1794,732.370613 488.4523,732.042813 C489.7157,731.717313 491.9182,731.079813 495.0503,730.132413 C495.6045,729.964813 496.1897,730.278213 496.3573,730.832413 C496.525,731.386613 496.2116,731.971813 495.6573,732.139513 C492.4989,733.094813 490.2747,733.738613 488.9753,734.073313 C487.6854,734.405613 486.4051,734.718313 485.1344,735.011613 C484.188,735.230013 484.188,735.230013 483.2415,735.448413 C482.295,735.666813 482.295,735.666813 481.3485,735.885213 C480.0849,736.176813 478.8504,736.458713 477.645,736.730913 C476.4395,737.003113 475.2631,737.265613 474.1158,737.518413 C472.975,737.769813 471.912,738.011413 470.9269,738.243213 C469.9395,738.475513 469.0105,738.698113 468.1399,738.910913 C467.2639,739.125013 466.4557,739.319813 465.7154,739.495113 C464.972,739.671213 464.2866,739.827813 463.6592,739.965113 C463.0268,740.103413 462.0963,740.289513 460.8646,740.524113 L459.0299,740.873613 C458.4611,740.981913 457.9122,740.608713 457.8038,740.039813 C457.6955,739.471013 458.0687,738.922113 458.6375,738.813813 L458.6375,738.813813 L458.6375,738.813813 L458.6375,738.813813 Z M520.4134,708.039013 L518.7243,708.155513 C517.7066,708.225713 516.9603,708.369913 516.5062,708.566613 C515.9799,708.794713 515.4089,709.107013 514.795,709.504213 C514.1497,709.921713 513.4549,710.397613 512.7109,710.931813 C511.9631,711.468713 511.176,712.054213 510.3497,712.688313 C509.5257,713.320713 508.6624,714.011313 507.7598,714.760313 C506.8568,715.509613 505.9634,716.278113 505.0795,717.065913 C504.1919,717.857113 503.3334,718.638413 502.5041,719.409913 C501.6754,720.180713 500.8563,720.961213 500.0469,721.751413 C499.241,722.538113 498.4933,723.295413 497.804,724.022913 C497.1158,724.749413 496.4663,725.465713 495.8556,726.171913 C495.2485,726.873813 494.7094,727.535913 494.2383,728.157813 C493.7684,728.778113 493.3466,729.377913 492.973,729.956913 C492.5908,730.549413 492.2279,731.131913 491.8844,731.704513 C491.5561,732.251713 491.2846,732.767513 491.0698,733.250913 C490.8457,733.754913 490.6405,734.258613 490.4541,734.761813 C490.291,735.202413 490.1962,735.597313 490.166,735.944713 C490.1354,736.297113 490.1504,736.627813 490.2097,736.939113 C490.2568,737.186513 490.3543,737.404513 490.5077,737.605113 C490.6812,737.832013 490.929,738.051513 491.257,738.260213 C491.6043,738.481213 492.0383,738.677713 492.5595,738.845913 C493.1056,739.022013 493.7312,739.165013 494.4357,739.273413 C495.1621,739.385213 495.9477,739.469313 496.7923,739.525613 C497.6427,739.582313 498.5028,739.610713 499.3728,739.610713 C500.2584,739.610713 501.1538,739.601113 502.0589,739.581813 C502.9634,739.562613 503.8484,739.533713 504.714,739.495213 C505.5866,739.456513 506.43,739.417713 507.2443,739.378913 C508.059,739.340113 508.8541,739.301313 509.6299,739.262513 C510.4138,739.223313 511.1493,739.193913 511.8365,739.174313 C512.5572,739.153713 513.259,739.174313 513.9418,739.236413 C514.6487,739.300713 515.2987,739.419813 515.8921,739.595613 C516.519,739.781413 517.0936,740.051113 517.6119,740.404513 C518.1648,740.781513 518.6116,741.253813 518.9432,741.814913 C519.2981,742.415613 519.4676,743.132413 519.4676,743.950013 C519.4676,744.694113 519.3365,745.524313 519.0795,746.445213 C518.8267,747.351113 518.4417,748.308513 517.926,749.319113 C517.417,750.316713 516.7799,751.358513 516.0148,752.445713 C515.2529,753.528313 514.3735,754.627613 513.3766,755.744113 C512.3903,756.848713 511.3165,757.971813 510.1552,759.113513 C508.9918,760.257113 507.818,761.332313 506.6336,762.339113 C505.4519,763.343413 504.2794,764.279513 503.1157,765.147313 C501.9533,766.014213 500.7711,766.841713 499.5691,767.630013 C498.3636,768.420513 497.2055,769.123213 496.0946,769.738213 C494.9857,770.352113 493.8954,770.907113 492.8237,771.403213 C491.7454,771.902513 490.7429,772.313513 489.8154,772.636113 C488.9042,772.953113 488.0312,773.230813 487.1962,773.469413 C486.3761,773.703713 485.6044,773.918613 484.881,774.114113 C484.1239,774.318813 483.3944,774.472913 482.6923,774.576113 C482.0262,774.674113 481.3891,774.762313 480.7809,774.840813 C480.0594,774.933913 479.4381,774.921713 478.9072,774.789013 C478.3586,774.651813 477.8915,774.418313 477.5211,774.078713 C477.1002,773.692913 476.8484,773.189313 476.7806,772.612913 C476.7253,772.143313 476.7762,771.622213 476.9212,771.042113 C477.0756,770.424613 477.4189,769.773613 477.9409,769.069913 C478.4109,768.436513 478.9874,767.748713 479.6709,767.004913 C480.3567,766.258613 481.1208,765.514613 481.9632,764.772513 C482.7969,764.038113 483.6794,763.314213 484.6107,762.600913 C485.5385,761.890213 486.4669,761.218613 487.3957,760.586213 C488.3249,759.953613 489.2834,759.340913 490.2712,758.748213 C491.2576,758.156413 492.2346,757.603813 493.2024,757.090213 C494.1717,756.575913 495.1126,756.110413 496.0251,755.693813 C496.9454,755.273713 497.8568,754.903113 498.7594,754.582213 C499.6556,754.263513 500.533,753.984413 501.3917,753.744813 C502.2374,753.508713 503.064,753.292213 503.8714,753.095313 C504.712,752.890313 506.0149,752.671513 507.7963,752.434013 C508.3703,752.357413 508.8976,752.760713 508.9741,753.334613 C509.0507,753.908613 508.6474,754.435913 508.0735,754.512413 C506.3602,754.740813 505.1196,754.949213 504.3682,755.132513 C503.5835,755.323813 502.7792,755.534513 501.9553,755.764413 C501.1442,755.990813 500.3131,756.255213 499.4619,756.557913 C498.6172,756.858213 497.7618,757.206013 496.8959,757.601313 C496.0222,758.000213 495.1186,758.447213 494.1852,758.942513 C493.2503,759.438613 492.3052,759.973113 491.3501,760.546313 C490.3964,761.118513 489.4716,761.709513 488.5758,762.319513 C487.6796,762.929713 486.7829,763.578313 485.8857,764.265513 C484.9919,764.950113 484.1465,765.643613 483.3493,766.345913 C482.5608,767.040513 481.8494,767.733213 481.2149,768.423713 C480.5782,769.116513 480.048,769.749113 479.6249,770.319313 C479.2538,770.819413 479.0341,771.236313 478.9555,771.550713 C478.8675,771.902513 478.8407,772.177513 478.8631,772.367913 C478.8729,772.451713 478.893,772.491713 478.938,772.533013 C479.0335,772.620613 479.1878,772.697713 479.4158,772.754713 C479.6615,772.816113 480.0303,772.823413 480.5126,772.761213 C481.1082,772.684313 481.7331,772.597813 482.3872,772.501613 C483.0054,772.410713 483.6543,772.273613 484.3339,772.089913 C485.0473,771.897113 485.8094,771.684913 486.6202,771.453213 C487.4161,771.225813 488.2516,770.960013 489.1266,770.655613 C489.9853,770.357013 490.9244,769.971913 491.9428,769.500413 C492.968,769.025813 494.0134,768.493613 495.079,767.903713 C496.1426,767.314913 497.2561,766.639213 498.4193,765.876513 C499.5859,765.111513 500.7335,764.308113 501.8621,763.466513 C502.9895,762.625713 504.1273,761.717413 505.2755,760.741413 C506.4209,759.767813 507.5575,758.726713 508.6852,757.618213 C509.8148,756.507713 510.8573,755.417413 511.8125,754.347613 C512.7571,753.289613 513.5862,752.253213 514.3,751.238913 C515.0105,750.229313 515.5964,749.271313 516.0582,748.366213 C516.5133,747.474113 516.8467,746.645313 517.0598,745.881513 C517.2688,745.132713 517.3707,744.487313 517.3707,743.950013 C517.3707,743.486213 517.2877,743.135113 517.1379,742.881613 C516.9647,742.588413 516.7319,742.342413 516.4306,742.136913 C516.0946,741.907813 515.7178,741.731013 515.2964,741.606113 C514.8413,741.471313 514.3264,741.376913 513.7519,741.324613 C513.1533,741.270213 512.5349,741.252013 511.8964,741.270313 C511.2246,741.289513 510.504,741.318313 509.7346,741.356813 C508.9572,741.395613 508.1603,741.434513 507.3441,741.473413 C506.5275,741.512313 505.6818,741.551113 504.8071,741.590013 C503.9252,741.629213 503.024,741.658613 502.1035,741.678213 C501.1836,741.697813 500.2734,741.707513 499.3728,741.707513 C498.4565,741.707513 497.5499,741.677713 496.6528,741.617913 C495.7501,741.557713 494.9048,741.467113 494.1168,741.345913 C493.3069,741.221313 492.5735,741.053613 491.9158,740.841513 C491.2333,740.621313 490.6382,740.351913 490.1313,740.029213 C489.605,739.694313 489.1733,739.312013 488.842,738.878813 C488.4906,738.419213 488.258,737.899413 488.1499,737.331413 C488.0538,736.827213 488.03,736.303713 488.077,735.763013 C488.1245,735.217313 488.2627,734.641413 488.4878,734.033613 C488.6897,733.488413 488.9117,732.943613 489.1536,732.399313 C489.4048,731.834213 489.7158,731.243313 490.0864,730.625613 C490.4418,730.033313 490.8167,729.431513 491.2111,728.820213 C491.6141,728.195513 492.066,727.552713 492.5669,726.891613 C493.0665,726.232113 493.6341,725.535113 494.2696,724.800313 C494.9014,724.069713 495.5722,723.329913 496.2818,722.580813 C496.9905,721.832813 497.7572,721.056313 498.5822,720.250913 C499.4036,719.449013 500.2349,718.656913 501.0759,717.874613 C501.9163,717.092813 502.7857,716.301513 503.6843,715.500613 C504.5866,714.696413 505.4988,713.911713 506.4208,713.146613 C507.3433,712.381213 508.2274,711.673913 509.0731,711.024913 C509.9165,710.377613 510.7215,709.778813 511.488,709.228413 C512.2584,708.675313 512.9809,708.180513 513.6559,707.743713 C514.3623,707.286613 515.0338,706.919413 515.6724,706.642713 C516.3833,706.334613 517.3455,706.148813 518.58,706.063613 L520.2691,705.947113 C520.8468,705.907313 521.3473,706.343313 521.3872,706.920913 C521.427,707.498613 520.991,707.999213 520.4134,708.039013 L520.4134,708.039013 L520.4134,708.039013 L520.4134,708.039013 Z M527.1536,735.635713 L526.2799,735.781313 C525.7824,735.864313 525.4425,735.951213 525.2946,736.019513 C525.0881,736.114813 524.8683,736.236913 524.6359,736.386313 C524.3691,736.557813 524.0924,736.739113 523.806,736.930013 C523.5279,737.115513 523.2494,737.310313 522.9707,737.514713 C522.6914,737.719613 522.4118,737.933913 522.132,738.157813 C521.8531,738.380913 521.564,738.623413 521.2646,738.885313 C520.9623,739.149813 520.6697,739.414113 520.3868,739.678213 C520.1135,739.933313 519.8593,740.187413 519.6243,740.440613 C519.3992,740.683013 519.192,740.933313 519.0025,741.191713 C518.7981,741.470513 518.6032,741.748913 518.4178,742.027013 C518.2328,742.304513 518.0572,742.581713 517.8911,742.858513 C517.7298,743.127413 517.5874,743.385413 517.4639,743.632613 C517.3426,743.875013 517.2398,744.106413 517.1552,744.326413 C517.0756,744.533413 517.0124,744.738913 516.9653,744.942913 C516.9241,745.121413 516.9047,745.276113 516.9047,745.406113 C516.9047,745.510913 516.9171,745.593513 516.9383,745.657113 C516.954,745.704113 516.9743,745.740113 517.0018,745.772313 C516.9928,745.761713 517.006,745.770313 517.0592,745.789613 C517.1769,745.832413 517.3247,745.862013 517.5037,745.874813 C517.6823,745.887513 517.884,745.874113 518.1094,745.831813 C518.3531,745.786113 518.5884,745.717813 518.8161,745.626713 C519.0796,745.521313 519.3541,745.397413 519.6394,745.254713 C519.9143,745.117313 520.2012,744.952113 520.4998,744.758913 C520.8096,744.558413 521.1101,744.349013 521.4013,744.130613 C521.6906,743.913613 521.9808,743.677813 522.2719,743.423113 C522.5742,743.158613 522.8668,742.894313 523.1498,742.630213 C523.3682,742.426413 523.3682,742.426413 523.5866,742.222513 C523.805,742.018613 523.805,742.018613 524.0234,741.814813 C524.3178,741.540013 524.5735,741.304013 524.7908,741.106513 C525.0145,740.903113 525.1896,740.748613 525.3199,740.640013 C525.3964,740.576213 525.4611,740.525213 525.52,740.483113 C525.5665,740.449913 525.6114,740.420613 525.6621,740.392413 C525.821,740.304213 525.9582,740.251413 526.1949,740.251413 C526.8367,740.251413 527.2507,740.768813 527.2507,741.308913 C527.2507,741.480113 527.2188,741.599513 527.1684,741.725613 C527.133,741.814013 527.0914,741.892113 527.0357,741.984813 C526.9673,742.098813 526.8719,742.247313 526.7469,742.434713 C526.6382,742.597913 526.5089,742.801013 526.3598,743.043313 C526.2207,743.269413 526.09,743.504613 525.9678,743.749013 C525.8505,743.983613 525.7506,744.216713 525.6679,744.448213 C525.5841,744.682813 525.518,744.906013 525.4691,745.117713 C525.4286,745.293313 525.4086,745.466613 525.4086,745.639113 C525.4086,745.772413 525.4273,745.884313 525.462,745.979813 C525.508,746.106313 525.5721,746.228613 525.656,746.348413 C525.7114,746.427613 525.785,746.497213 525.8841,746.560213 C526.0029,746.635813 526.1568,746.700913 526.3486,746.752113 C526.5656,746.809913 526.8242,746.848013 527.1237,746.863713 C527.4097,746.878813 527.7395,746.855213 528.1122,746.790413 C528.5099,746.721313 528.9293,746.616413 529.3702,746.475313 C529.8183,746.331913 530.2878,746.151413 530.7783,745.933413 C531.2607,745.719013 531.7553,745.458213 532.2617,745.150713 C532.7756,744.838713 533.291,744.489013 533.8077,744.101413 C534.3262,743.712613 534.856,743.275713 535.3969,742.790813 C535.9363,742.307113 536.4574,741.795313 536.9603,741.255213 C537.4683,740.709613 537.9673,740.135213 538.4574,739.532013 C538.9495,738.926413 539.4422,738.282113 539.9356,737.599013 C540.4314,736.912413 540.9178,736.206613 541.3949,735.481513 C541.8754,734.751113 542.3365,734.030613 542.7783,733.320013 C543.2154,732.616813 543.6334,731.904213 544.0325,731.182213 C544.4332,730.456913 544.8148,729.731913 545.1773,729.007113 C545.5411,728.279513 545.8855,727.561813 546.2107,726.854013 C546.5366,726.144713 546.8334,725.474613 547.1011,724.843713 C547.3672,724.216413 547.614,723.599213 547.8418,722.992013 C548.0702,722.382913 548.2891,721.764113 548.4986,721.135613 C548.7076,720.508713 548.8876,719.930913 549.0385,719.402613 C549.189,718.875913 549.3204,718.369113 549.4327,717.882313 C549.5451,717.395513 549.6383,716.938413 549.7126,716.511313 C549.7877,716.079413 549.8535,715.647513 549.9098,715.215713 C549.9647,714.794713 550.001,714.413613 550.0189,714.073113 C550.0351,713.765613 550.0273,713.499513 549.9975,713.276613 C549.9654,713.035413 549.9175,712.803813 549.8539,712.581513 C549.807,712.417113 549.7487,712.289813 549.6828,712.195713 C549.6541,712.154813 549.626,712.131313 549.5836,712.112113 C549.5603,712.101513 549.519,712.096513 549.4377,712.108213 C549.2645,712.132913 549.0273,712.204813 548.7352,712.327813 C548.4463,712.449413 548.1167,712.642313 547.751,712.908313 C547.3649,713.189113 546.9444,713.547013 546.4916,713.981713 C546.0382,714.416913 545.5614,714.939613 545.0626,715.549313 C544.5556,716.168913 544.0373,716.856813 543.5083,717.612613 C542.9693,718.382513 542.4107,719.201113 541.8326,720.068313 C541.263,720.922713 540.6924,721.845113 540.121,722.835613 C539.5441,723.835613 538.967,724.874413 538.3897,725.952113 C537.812,727.030413 537.2146,728.186613 536.5976,729.420613 C535.9783,730.659113 535.3785,731.878213 534.798,733.077913 C534.2174,734.277713 533.6368,735.497013 533.0562,736.735713 C532.4746,737.976413 531.893,739.226813 531.3114,740.486913 C530.7304,741.745913 530.1784,742.956313 529.6556,744.118113 C529.1309,745.284213 528.6255,746.401813 528.1396,747.470913 C527.6551,748.536713 527.2095,749.524913 526.8027,750.435313 C526.3967,751.343813 526.0102,752.223213 525.6431,753.073413 C525.2759,753.923713 524.9476,754.696213 524.6582,755.390813 C524.3695,756.083513 524.1198,756.698313 523.909,757.234813 C523.6947,757.780413 523.49,758.296913 523.295,758.784313 C523.1049,759.259713 522.9341,759.705713 522.7827,760.122013 C522.6284,760.546213 522.4936,760.921713 522.3783,761.248513 C522.2769,761.535713 522.2122,761.754213 522.1848,761.891513 C522.1778,761.926213 522.176,761.941113 522.176,761.926113 C522.176,761.801213 522.1459,761.658113 522.029,761.482913 C521.7277,761.030913 521.2326,760.960213 520.8692,761.105613 C520.7848,761.139313 520.7614,761.155513 520.7575,761.158913 C520.8605,761.068813 521.0408,760.872113 521.2793,760.582513 C521.5296,760.278613 521.843,759.854613 522.2157,759.314113 C522.5981,758.759613 523.0395,758.097613 523.5394,757.328513 C524.0365,756.563713 524.5535,755.730713 525.0904,754.829613 C525.6325,753.919613 526.2039,752.951213 526.8044,751.924613 C527.4034,750.900413 528.0025,749.856813 528.6016,748.793813 C529.2019,747.728813 529.8119,746.634613 530.4317,745.511313 C531.0552,744.381213 531.6885,743.251113 532.3314,742.121013 C532.9744,740.991013 533.627,739.861013 534.2894,738.731013 C534.9532,737.598813 535.6267,736.476313 536.31,735.363513 C536.9924,734.252113 537.6749,733.160113 538.3575,732.087513 C539.0418,731.012113 539.7069,729.995013 540.3528,729.035913 C540.9964,728.080213 541.6303,727.153613 542.2547,726.256213 C542.8775,725.360913 543.4712,724.514113 544.0359,723.715813 C544.6053,722.910713 545.1653,722.144413 545.7158,721.416913 C546.2617,720.695613 546.7688,720.032513 547.2372,719.427413 C547.7036,718.825013 548.141,718.261313 548.5492,717.736413 C548.9608,717.207213 549.3725,716.687713 549.7843,716.177813 C550.1923,715.672813 550.5614,715.216213 550.8917,714.808213 C551.2259,714.395313 551.5506,714.001813 551.8657,713.627613 C552.1794,713.255113 552.4641,712.921313 552.7199,712.626113 C552.9979,712.305313 553.2591,712.033313 553.5059,711.808913 C553.8286,711.515513 554.1217,711.320113 554.4473,711.227113 C555.0956,711.041913 555.7652,711.339513 555.9921,712.020113 C556.0952,712.329513 556.0952,712.662913 556.0367,713.101813 C555.9883,713.464513 555.8774,713.908413 555.7048,714.447713 C555.54,714.962613 555.3169,715.561113 555.035,716.245613 C554.7587,716.916613 554.4436,717.645313 554.0897,718.431813 C553.7342,719.221813 553.3398,720.050013 552.9064,720.916713 C552.4767,721.776313 552.0178,722.674513 551.5298,723.611413 C551.0394,724.552913 550.5199,725.513613 549.9712,726.493413 C549.425,727.468813 548.869,728.444213 548.3033,729.419513 C547.7392,730.392113 547.1654,731.374413 546.5818,732.366513 C545.9947,733.364613 545.4073,734.333713 544.8198,735.273713 C544.383,735.972713 544.383,735.972713 543.9462,736.671613 C543.5093,737.370613 543.5093,737.370613 543.0725,738.069513 C542.4893,739.002613 541.9158,739.916313 541.3521,740.810513 C540.7885,741.704413 540.2541,742.549713 539.7488,743.346613 C539.2434,744.143613 538.7671,744.892013 538.3199,745.592013 C537.8711,746.294513 537.4416,746.958213 537.0315,747.583113 C536.6314,748.192913 536.2602,748.782813 535.9182,749.352913 C535.5708,749.931913 535.2624,750.452413 534.9929,750.914413 C534.719,751.384013 534.4644,751.814813 534.2291,752.207013 C533.9989,752.590713 533.7784,752.964613 533.5676,753.328713 C533.3549,753.695913 533.1714,754.014613 533.0172,754.284613 C532.8583,754.562713 532.7488,754.751713 532.6856,754.857213 C532.6564,754.905713 532.6288,754.948513 532.598,754.990813 C532.565,755.035513 532.565,755.035513 532.5078,755.101213 C532.431,755.185613 532.431,755.185613 532.1972,755.335613 C532.002,755.424313 532.002,755.424313 531.638,755.443413 C531.2011,755.339913 531.2011,755.339913 530.9042,755.052313 C530.6646,754.573213 530.6646,754.573213 530.6726,754.388713 C530.6726,754.272013 530.6869,754.189713 530.7112,754.092613 C530.7495,753.939313 530.8278,753.738013 530.9685,753.409713 C531.0919,753.121713 531.2723,752.730813 531.5112,752.233213 C531.7525,751.730513 532.0612,751.133113 532.4378,750.439313 C532.8041,749.764513 533.1997,749.021613 533.6245,748.210613 C534.057,747.384913 534.5282,746.520913 535.0384,745.618313 C535.5471,744.718213 536.0754,743.808513 536.623,742.889213 C537.1719,741.967913 537.7209,741.075813 538.2701,740.212713 C538.8187,739.350613 539.3772,738.498313 539.9454,737.655713 C540.5106,736.817713 541.0758,735.989413 541.641,735.170813 C542.2158,734.338313 542.7914,733.554413 543.3677,732.819013 C543.9359,732.094113 544.4945,731.398313 545.0436,730.731513 C545.5921,730.065513 546.1116,729.448013 546.6023,728.878713 C547.0953,728.306913 547.5789,727.764113 548.053,727.250413 C548.5282,726.735713 548.9844,726.259613 549.4217,725.822313 C549.862,725.382013 550.2739,724.990213 550.658,724.646513 C551.0372,724.307213 551.3975,723.997013 551.739,723.715713 C552.0867,723.429513 552.4063,723.182013 552.699,722.973013 C552.9991,722.758613 553.3006,722.564713 553.6036,722.391613 C553.9322,722.203813 554.2466,722.058713 554.5494,721.957813 C554.9505,721.824113 555.3423,721.786813 555.72,721.870713 C556.1709,721.970913 556.5443,722.237613 556.7894,722.629713 C556.9879,722.947513 557.0901,723.322113 557.1208,723.751413 C557.1494,724.152613 557.0876,724.623013 556.9465,725.187013 C556.8186,725.698713 556.6306,726.273013 556.3829,726.913013 C556.1374,727.547213 555.8328,728.227413 555.4692,728.954613 C555.1132,729.666713 554.7279,730.397813 554.3133,731.148013 C553.8976,731.900213 553.4525,732.661813 552.9781,733.432813 C552.5064,734.199313 552.0055,734.984913 551.4755,735.789813 C550.9443,736.596513 550.432,737.345213 549.9387,738.035913 C549.4466,738.724713 548.9737,739.365213 548.5197,739.957413 C548.0689,740.545313 547.647,741.084913 547.254,741.576213 C546.8634,742.064513 546.4921,742.523713 546.1401,742.953913 C545.7944,743.376513 545.4778,743.769813 545.1905,744.133713 C544.8836,744.522413 544.6046,744.853113 544.3517,745.127113 C544.1304,745.366913 543.9285,745.596313 543.746,745.815213 C543.6206,745.965713 543.553,746.069713 543.5437,746.094613 C543.5551,746.064013 543.5668,746.011813 543.5668,745.923113 C543.5668,745.715613 543.4867,745.488913 543.3034,745.305513 C543.138,745.140113 542.9504,745.067213 542.7801,745.053013 C542.7199,745.048013 542.6918,745.050813 542.6841,745.052513 C542.7267,745.043013 542.894,744.965813 543.1371,744.822813 C543.4665,744.629113 543.8445,744.406113 544.2711,744.154113 C544.678,743.913613 545.1453,743.614513 545.6719,743.257213 C546.2017,742.897713 546.7319,742.519013 547.2624,742.121113 C547.8144,741.707113 548.3569,741.312613 548.8899,740.937513 C549.4056,740.574613 549.8922,740.221613 550.3495,739.878613 C550.8194,739.526113 551.2701,739.193013 551.7015,738.879313 C552.0219,738.646313 552.0219,738.646313 552.3422,738.413313 C552.6626,738.180313 552.6626,738.180313 552.9829,737.947413 C553.4123,737.635113 553.7641,737.381013 554.0386,737.184913 C554.2955,737.001413 554.4687,736.873813 554.5464,736.811713 C554.5396,736.817113 554.5237,736.831813 554.4846,736.880713 C554.4151,736.967613 554.3557,737.068513 554.3134,737.216713 C554.2182,737.550013 554.2888,737.938413 554.5765,738.226113 C554.7981,738.447713 555.0521,738.525913 555.2942,738.525913 C555.3945,738.525913 555.4714,738.512513 555.5403,738.492813 C555.5801,738.481413 555.5881,738.478113 555.5828,738.480713 C555.4909,738.526713 555.3331,738.614313 555.118,738.739813 C554.9096,738.861413 554.659,739.022513 554.3683,739.222413 C554.0536,739.438713 553.7485,739.645413 553.4531,739.842313 C553.1919,740.016513 552.9596,740.188513 552.7564,740.357913 C552.5348,740.542513 552.3229,740.726813 552.1206,740.910713 C552.0643,740.961913 552.0276,741.001713 552.0105,741.025413 C552.0206,741.011413 552.0382,740.976213 552.0539,740.913413 C552.1003,740.727613 552.047,740.527713 551.9493,740.413713 C551.9207,740.380313 551.8994,740.363713 551.8915,740.359313 C551.9151,740.372313 551.9594,740.389813 552.0237,740.408213 C552.1978,740.457913 552.5302,740.497513 552.9963,740.514213 C553.5055,740.532413 554.0851,740.523213 554.7338,740.486113 C555.3908,740.448513 556.1171,740.382513 556.9121,740.287913 C557.7074,740.193213 558.4733,740.079713 559.2098,739.947513 C559.955,739.813813 560.6807,739.670613 561.3868,739.517913 C562.0799,739.368013 563.1099,739.101013 564.4694,738.718013 C565.0267,738.561013 565.6058,738.885613 565.7628,739.442913 C565.9198,740.000313 565.5953,740.579313 565.0379,740.736313 C563.6404,741.130013 562.5736,741.406613 561.8299,741.567413 C561.0994,741.725313 560.3495,741.873313 559.5803,742.011413 C558.8024,742.151013 557.9956,742.270513 557.16,742.370013 C556.3242,742.469513 555.5555,742.539413 554.8534,742.579513 C554.1431,742.620113 553.4995,742.630313 552.9215,742.609713 C552.3003,742.587513 551.8173,742.530013 551.4477,742.424413 C550.9951,742.295113 550.6264,742.092313 550.3572,741.778313 C550.0265,741.392513 549.8955,740.901213 550.0196,740.404813 C550.1181,740.011213 550.3574,739.679813 550.7101,739.359113 C550.935,739.154713 551.1696,738.950713 551.414,738.747013 C551.6768,738.528113 551.9687,738.311813 552.2899,738.097613 C552.5769,737.906313 552.8738,737.705313 553.1804,737.494513 C553.5109,737.267213 553.804,737.078813 554.0615,736.928613 C554.3123,736.782313 554.504,736.675813 554.6451,736.605213 C554.7563,736.549613 554.8565,736.507413 554.9643,736.476613 C555.0672,736.447213 555.1719,736.429013 555.2942,736.429013 C555.5581,736.429013 555.8278,736.512013 556.0592,736.743413 C556.3566,737.040813 556.4296,737.442513 556.3296,737.792813 C556.2824,737.957913 556.2109,738.079513 556.122,738.190613 C556.044,738.288113 555.9602,738.365913 555.8563,738.449013 C555.7399,738.542213 555.5441,738.686413 555.2574,738.891213 C554.9883,739.083413 554.6411,739.334113 554.2162,739.643213 C553.8959,739.876113 553.8959,739.876113 553.5755,740.109113 C553.2552,740.342113 553.2552,740.342113 552.9348,740.575113 C552.512,740.882613 552.0695,741.209613 551.6076,741.556113 C551.1329,741.912113 550.6293,742.277513 550.0966,742.652313 C549.5812,743.015013 549.0558,743.397113 548.5205,743.798613 C547.9638,744.216113 547.4067,744.614013 546.8493,744.992313 C546.2887,745.372713 545.7852,745.694913 545.3378,745.959313 C544.9101,746.212013 544.531,746.435613 544.2002,746.630213 C543.7832,746.875513 543.4457,747.031313 543.1389,747.099413 C542.6468,747.208813 542.2044,747.171913 541.8207,746.788213 C541.393,746.360613 541.393,745.857913 541.5803,745.358413 C541.6875,745.072613 541.8723,744.788313 542.1352,744.472913 C542.3411,744.225813 542.5663,743.969913 542.8109,743.704813 C543.024,743.474013 543.2692,743.183513 543.5447,742.834413 C543.8399,742.460513 544.1641,742.057813 544.5172,741.626113 C544.8642,741.202013 545.2307,740.748713 545.6167,740.266313 C546.0003,739.786813 546.4133,739.258513 546.8556,738.681613 C547.2947,738.108813 547.7537,737.487313 548.2324,736.817113 C548.7098,736.148713 549.2072,735.421813 549.7243,734.636513 C550.2427,733.849313 550.732,733.081713 551.1923,732.333813 C551.6498,731.590413 552.0784,730.857013 552.4781,730.133713 C552.879,729.408313 553.2509,728.702713 553.5938,728.016913 C553.9291,727.346213 554.207,726.725613 554.4275,726.156013 C554.6457,725.592213 554.8072,725.098813 554.9123,724.678513 C555.0043,724.310613 555.0394,724.043213 555.0293,723.900813 C555.0211,723.786513 555.0068,723.733913 555.0112,723.741013 C555.0621,723.822513 555.1638,723.895113 555.2651,723.917613 C555.2933,723.923913 555.2774,723.925413 555.2125,723.947013 C555.0495,724.001413 554.859,724.089313 554.644,724.212213 C554.4033,724.349713 554.1612,724.505313 553.9177,724.679213 C553.6668,724.858513 553.3845,725.077013 553.072,725.334313 C552.7535,725.596713 552.4148,725.888313 552.0562,726.209213 C551.7026,726.525613 551.3185,726.891013 550.9044,727.305013 C550.4875,727.721913 550.0506,728.177813 549.5938,728.672713 C549.1361,729.168613 548.6683,729.693613 548.1905,730.247913 C547.7104,730.804713 547.201,731.410313 546.6622,732.064513 C546.124,732.718013 545.576,733.400713 545.0181,734.112513 C544.4683,734.813913 543.9178,735.563813 543.3665,736.362213 C542.8056,737.174513 542.2448,737.996413 541.6839,738.828113 C541.126,739.655313 540.5778,740.492013 540.0391,741.338513 C539.5011,742.184013 538.9629,743.058613 538.4244,743.962413 C537.8849,744.868113 537.3647,745.764013 536.8638,746.650113 C536.3644,747.533713 535.9037,748.378213 535.4819,749.183513 C535.0525,750.003413 534.6521,750.755413 534.2806,751.439713 C533.9194,752.105013 533.6262,752.672513 533.4015,753.140613 C533.1745,753.613713 533.0054,753.980013 532.8958,754.235713 C532.8035,754.451013 532.7459,754.599113 532.7454,754.601213 C532.76,754.542913 532.7694,754.488513 532.7694,754.388713 C532.778,754.215613 532.778,754.215613 532.5415,753.742413 C532.2465,753.456813 532.2465,753.456813 531.8122,753.353813 C531.4511,753.372813 531.4511,753.372813 531.2594,753.460113 C531.0334,753.605013 531.0334,753.605013 530.967,753.679013 C530.9213,753.731513 530.9213,753.731513 530.9022,753.757513 C530.8909,753.773113 530.8875,753.778413 530.8875,753.778313 C530.9408,753.689613 531.0449,753.509813 531.1966,753.244313 C531.353,752.970613 531.5384,752.648613 531.7529,752.278113 C531.9692,751.904413 532.1953,751.521113 532.431,751.128213 C532.6617,750.743713 532.9119,750.320313 533.1816,749.857913 C533.4558,749.388013 533.7686,748.860113 534.1202,748.274113 C534.4771,747.679313 534.8632,747.065513 535.2784,746.432713 C535.6837,745.815113 536.1086,745.158513 536.5529,744.463113 C536.9988,743.765213 537.4738,743.018713 537.978,742.223613 C538.4823,741.428413 539.0157,740.584613 539.5783,739.692313 C540.1406,738.800313 540.7126,737.889013 541.2943,736.958213 C541.7312,736.259213 541.7312,736.259213 542.168,735.560313 C542.6049,734.861313 542.6049,734.861313 543.0417,734.162413 C543.6191,733.238513 544.1967,732.285513 544.7745,731.303313 C545.3559,730.315013 545.9275,729.336413 546.4895,728.367513 C547.0499,727.401213 547.6006,726.435113 548.1417,725.468913 C548.6802,724.507313 549.1896,723.565213 549.6701,722.642813 C550.1528,721.715913 550.6065,720.827913 551.031,719.979013 C551.4519,719.137113 551.8341,718.334513 552.1775,717.571313 C552.5226,716.804513 552.8288,716.096413 553.0961,715.447213 C553.3579,714.811513 553.5618,714.264513 553.7077,713.808613 C553.8458,713.377213 553.9289,713.044513 553.9583,712.824713 C553.972,712.721813 553.9782,712.642713 553.9782,712.591913 C553.9782,712.593113 553.9812,712.618313 554.0029,712.683213 C554.1521,713.130813 554.647,713.350813 555.0234,713.243313 C555.0718,713.229413 555.0879,713.221413 555.0839,713.224013 C555.0441,713.250613 554.9869,713.296313 554.9164,713.360413 C554.7361,713.524413 554.5313,713.737713 554.3045,713.999413 C554.0555,714.286613 553.7772,714.613013 553.4696,714.978213 C553.1634,715.341813 552.8474,715.724913 552.5215,716.127513 C552.1917,716.534913 551.823,716.990913 551.4155,717.495413 C551.0119,717.995113 550.6081,718.504613 550.2043,719.023813 C549.7971,719.547413 549.3607,720.109813 548.8952,720.711113 C548.4317,721.309813 547.9293,721.966813 547.3879,722.682313 C546.8512,723.391513 546.3045,724.139613 545.7478,724.926613 C545.1864,725.720313 544.5958,726.562713 543.976,727.453613 C543.3578,728.342313 542.7298,729.260213 542.092,730.207213 C541.4565,731.150813 540.8013,732.152813 540.1265,733.213213 C539.45,734.276313 538.7735,735.358813 538.0968,736.460713 C537.4211,737.561313 536.7549,738.671513 536.0984,739.791413 C535.4405,740.913613 534.7924,742.035813 534.1539,743.157913 C533.5155,744.280113 532.8867,745.402113 532.2677,746.524213 C531.6449,747.653013 531.0317,748.752813 530.4283,749.823413 C529.8237,750.896113 529.219,751.949313 528.6143,752.983213 C528.0111,754.014613 527.4369,754.987813 526.8918,755.902813 C526.3414,756.826613 525.81,757.682813 525.2975,758.471213 C524.7878,759.255413 524.3361,759.933013 523.9419,760.504613 C523.538,761.090113 523.1913,761.559313 522.8979,761.915513 C522.5928,762.286013 522.346,762.555213 522.1383,762.737013 C521.9791,762.876313 521.8295,762.979813 521.648,763.052413 C521.1875,763.236613 520.6245,763.156213 520.2843,762.646013 C520.0367,762.274513 520.0367,761.939913 520.1286,761.480213 C520.1788,761.229213 520.2694,760.923413 520.401,760.550613 C520.5187,760.217213 520.6557,759.835513 520.8121,759.405413 C520.9713,758.967513 521.15,758.500913 521.3482,758.005613 C521.5415,757.522313 521.7446,757.009813 521.9574,756.468113 C522.1737,755.917313 522.4288,755.289513 522.7226,754.584313 C523.0157,753.881013 523.3475,753.100313 523.718,752.242113 C524.0887,751.383713 524.4788,750.496313 524.8883,749.579913 C525.2969,748.665213 525.7444,747.673013 526.2307,746.603213 C526.7155,745.536613 527.2198,744.421413 527.7434,743.257713 C528.269,742.089613 528.8238,740.873113 529.4076,739.608213 C529.9909,738.344313 530.5742,737.090213 531.1576,735.845713 C531.7419,734.599213 532.3262,733.372213 532.9105,732.164513 C533.495,730.956713 534.0988,729.729413 534.7221,728.482913 C535.3477,727.231713 535.9541,726.058113 536.5413,724.961913 C537.1289,723.865113 537.7167,722.807013 538.3047,721.787813 C538.8982,720.759113 539.4926,719.798213 540.0879,718.905213 C540.6747,718.025113 541.2422,717.193413 541.7905,716.410113 C542.3487,715.612713 542.8983,714.883213 543.4397,714.221513 C543.9893,713.549813 544.5221,712.965713 545.0395,712.469013 C545.5574,711.971813 546.0494,711.553113 546.5176,711.212513 C547.0061,710.857313 547.4726,710.584313 547.9215,710.395213 C548.3671,710.207613 548.7707,710.085313 549.1411,710.032413 C549.6034,709.966313 550.0475,710.019613 550.4513,710.203213 C550.8361,710.378113 551.1574,710.645913 551.4006,710.993213 C551.6065,711.287413 551.7618,711.626213 551.8701,712.005413 C551.9619,712.326713 552.0305,712.658213 552.076,712.999413 C552.1239,713.358913 552.1355,713.753013 552.1129,714.183313 C552.092,714.580513 552.0506,715.014813 551.989,715.486913 C551.9288,715.948213 551.8587,716.409513 551.7785,716.870613 C551.6974,717.336613 551.5965,717.830913 551.4759,718.353813 C551.3553,718.876513 551.2148,719.418113 551.0547,719.978713 C550.895,720.537613 550.7061,721.144113 550.4879,721.798713 C550.2702,722.451613 550.0426,723.094813 549.8051,723.728313 C549.5668,724.363613 549.3089,725.008413 549.0314,725.662613 C548.7554,726.313113 548.4503,727.002013 548.1161,727.729413 C547.7812,728.458413 547.4267,729.196813 547.0527,729.944813 C546.6774,730.695513 546.2824,731.446113 545.8677,732.196413 C545.4513,732.949913 545.0151,733.693413 544.5591,734.427013 C544.1077,735.153113 543.6369,735.888713 543.1467,736.633913 C542.6529,737.384413 542.1492,738.115313 541.6354,738.826613 C541.1192,739.541413 540.6024,740.217313 540.0848,740.854313 C539.5653,741.493713 539.0354,742.103613 538.4949,742.684113 C537.9493,743.270113 537.3832,743.826113 536.7966,744.352013 C536.2114,744.876713 535.6345,745.352413 535.0658,745.778913 C534.4952,746.206813 533.9233,746.594913 533.35,746.943013 C532.7692,747.295613 532.1959,747.597913 531.6299,747.849513 C531.072,748.097413 530.5319,748.305213 530.0092,748.472413 C529.4793,748.642013 528.9668,748.770113 528.4714,748.856313 C527.9509,748.946813 527.4654,748.981513 527.0135,748.957713 C526.5753,748.934613 526.1738,748.875613 525.8083,748.778113 C525.4177,748.673913 525.0667,748.525513 524.7584,748.329313 C524.4304,748.120513 524.1545,747.860013 523.9381,747.550913 C523.7502,747.282413 523.6007,746.997013 523.4914,746.696413 C523.3708,746.364713 523.3118,746.010613 523.3118,745.639113 C523.3118,745.306913 523.35,744.975413 523.426,744.646213 C523.4936,744.353113 523.5828,744.052113 523.6932,743.743013 C523.8047,743.430913 523.9378,743.120413 524.0923,742.811313 C524.2419,742.512213 524.4024,742.223113 524.574,741.944413 C524.7355,741.681913 524.878,741.457913 525.0023,741.271613 C525.1103,741.109513 525.1896,740.986213 525.2377,740.906013 C525.2403,740.901713 525.2374,740.907013 525.2215,740.946813 C525.1808,741.048713 525.1538,741.149813 525.1538,741.308913 C525.1538,741.836913 525.5629,742.348213 526.1949,742.348213 C526.452,742.322313 526.452,742.322313 526.5618,742.280613 C526.6404,742.247213 526.6404,742.247213 526.6804,742.225413 C526.7093,742.209413 526.7263,742.198313 526.7388,742.189413 C526.7298,742.195813 526.7022,742.217613 526.6623,742.250913 C526.5596,742.336413 526.4046,742.473213 526.2012,742.658013 C525.9914,742.848813 525.7423,743.078813 525.4542,743.347713 C525.2357,743.551513 525.2357,743.551513 525.0173,743.755413 C524.7989,743.959313 524.7989,743.959313 524.5805,744.163113 C524.281,744.442713 523.9717,744.722013 523.6527,745.001113 C523.3225,745.290013 522.9915,745.559013 522.6594,745.808013 C522.3294,746.055613 521.9892,746.292713 521.6389,746.519413 C521.2773,746.753313 520.9235,746.957013 520.5771,747.130213 C520.2411,747.298213 519.9138,747.446013 519.5948,747.573613 C519.2401,747.715513 518.8735,747.822013 518.4959,747.892813 C518.1,747.967013 517.7193,747.992413 517.3543,747.966313 C516.9896,747.940213 516.652,747.872713 516.3426,747.760213 C515.9686,747.624213 515.6518,747.419213 515.4098,747.136913 C515.2044,746.897213 515.0499,746.622613 514.9491,746.320113 C514.8538,746.034213 514.8079,745.728513 514.8079,745.406113 C514.8079,745.109013 514.8468,744.797813 514.9221,744.471413 C514.9915,744.170713 515.0836,743.871413 515.1981,743.573613 C515.3077,743.288813 515.4378,742.996013 515.5884,742.694813 C515.7367,742.398313 515.9049,742.093313 516.0931,741.779713 C516.2765,741.474113 516.4698,741.168813 516.6731,740.863913 C516.876,740.559513 517.0888,740.255513 517.3116,739.951713 C517.5492,739.627713 517.808,739.315013 518.0877,739.013813 C518.3574,738.723313 518.6469,738.433913 518.9561,738.145313 C519.2556,737.865813 519.5648,737.586413 519.8838,737.307313 C520.2058,737.025613 520.5185,736.763313 520.8221,736.520413 C521.1247,736.278313 521.4276,736.046113 521.7307,735.823813 C522.0345,735.601113 522.3385,735.388313 522.6429,735.185413 C522.9388,734.988013 523.2252,734.800413 523.502,734.622513 C523.8133,734.422413 524.1177,734.253313 524.4159,734.115613 C524.7729,733.950913 525.2679,733.824213 525.9352,733.713013 L526.8089,733.567413 C527.3801,733.472213 527.9202,733.858013 528.0154,734.429213 C528.1106,735.000313 527.7248,735.540513 527.1536,735.635713 L527.1536,735.635713 L527.1536,735.635713 L527.1536,735.635713 Z" id="Untitled"></path>
        </g>
    </g>
</svg>