<svg width="48px" height="96px" viewBox="0 0 48 96" version="1.1" xmlns="http://www.w3.org/2000/svg" xmlns:xlink="http://www.w3.org/1999/xlink">
    <g id="Symbols" stroke="none" stroke-width="1" fill="none" fill-rule="evenodd">
        <g id="work-sprite">
            <path d="M24.2814925,13.4502896 L28.6713643,9.06003974 C28.0553643,7.60303974 28.3383643,5.85903974 29.5253643,4.67103974 C30.7123643,3.48303974 32.4583643,3.20003974 33.9163643,3.81703974 L32.0013643,5.73103974 L32.0013643,8.00103974 L34.1223643,8.00103974 L36.0353643,6.01303974 C36.6513643,7.46803974 36.3693643,9.14103974 35.1823643,10.3270397 C33.9943643,11.5150397 32.2493643,11.7980397 30.7933643,11.1810397 L26.4028035,15.5716006 L24.2814925,13.4502896 Z M21.4531872,16.2788385 L17.0593643,20.6730397 C15.6033643,20.0560397 13.8573643,20.3390397 12.6703643,21.5270397 C11.4833643,22.7150397 11.2003643,24.4590397 11.8163643,25.9160397 L13.7303643,24.0020397 L16.0003643,24.0020397 L16.0003643,26.1230397 L14.0123643,28.0370397 C15.4693643,28.6520397 17.1773643,28.3690397 18.3643643,27.1830397 C19.5513643,25.9980397 19.7963643,24.2490397 19.1803643,22.7940397 L23.5743764,18.4000277 L21.4531872,16.2788385 Z" id="Wrench" stroke="#000000"></path>
            <path d="M12.5874745,7.41312579 C11.8067034,6.63235471 11.801483,5.37169505 12.5879769,4.58520114 L12.5879769,4.58520114 C13.3690255,3.80415255 14.637084,3.80588109 15.4159016,4.58469866 L34.1067145,23.2755116 L35.8232583,27.8204825 L31.2782874,26.1039387 L12.5874745,7.41312579 L12.5874745,7.41312579 Z" id="Rectangle-22" stroke="#000000" stroke-width="0.9"></path>
            <path d="M16.62,8.58469866 L32.31,24.2755116" id="Rectangle-22" stroke="#000000" stroke-width="0.7" fill="#FFFFFF"></path>
            <polygon id="Rectangle-22" stroke="#000000" stroke-width="0.9" points="16.4159016 5.58469866 18.1067145 7.27551157 15.2782874 10.1039387 13.5874745 8.41312579"></polygon>
            <path d="M32.0054322,24.0014038 C33.02771,22.9980469 34.1067145,23.2755116 34.1067145,23.2755116 L35.8232583,27.8204825 L31.2782874,26.1039387 C31.2782874,26.1039387 30.9831543,25.0047608 32.0054322,24.0014038 Z" id="Rectangle-22" stroke="#000000" stroke-width="0.9" stroke-linejoin="bevel"></path>
            <path d="M12.5874745,39.4131258 C11.8067034,38.6323547 11.801483,37.371695 12.5879769,36.5852011 L12.5879769,36.5852011 C13.3690255,35.8041526 14.637084,35.8058811 15.4159016,36.5846987 L34.1067145,55.2755116 L35.8232583,59.8204825 L31.2782874,58.1039387 L12.5874745,39.4131258 L12.5874745,39.4131258 Z" id="Rectangle-22" stroke="#FFB100" fill="#FFB100"></path>
            <path d="M23.8613412,45.0301383 C24.9254783,46.0942754 25.9274972,47.0962943 26.7503183,47.9191153" id="Rectangle-22" stroke="#FF9802"></path>
            <path d="M21.1000004,47.8999996 C22.1641375,48.9641367 23.1661564,49.9661556 23.9889774,50.7889767" id="Rectangle-22" stroke="#FF9802"></path>
            <path d="M12.5879769,36.5852011 C13.3690255,35.8041526 14.637084,35.8058811 15.4159016,36.5846987 L16.1067145,37.2755116 L13.2782874,40.1039387 L12.5874745,39.4131258 C11.8067034,38.6323547 11.801483,37.371695 12.5879769,36.5852011 Z" id="Rectangle-22" stroke="#FE2851" fill="#FE2851"></path>
            <path d="M16.62,40.5846987 L32.31,56.2755116" id="Rectangle-22" stroke="#000000" stroke-width="0.7" fill="#FFFFFF"></path>
            <polygon id="Rectangle-22" stroke="#A1B0B7" fill="#A2B0B7" points="16.4159016 37.5846987 18.1067145 39.2755116 15.2782874 42.1039387 13.5874745 40.4131258"></polygon>
            <path d="M32.0054322,56.0014038 C33.02771,54.9980469 34.1067145,55.2755116 34.1067145,55.2755116 L35.8232583,59.8204825 L31.2782874,58.1039387 C31.2782874,58.1039387 30.9831543,57.0047608 32.0054322,56.0014038 Z" id="Rectangle-22" stroke="#FFD9B6" fill="#FFEAD7"></path>
            <polygon id="Rectangle-22" stroke="#000000" fill="#000000" points="35.1503463 58.038783 35.8232583 59.8204825 33.9696578 59.120415"></polygon>
            <path d="M30.7933643,75.1810397 C32.2493643,75.7980397 33.9943643,75.5150397 35.1823643,74.3270397 C36.3693643,73.1410397 36.6513643,71.4680397 36.0353643,70.0130397 L34.1223643,72.0010397 L32.0013643,72.0010397 L32.0013643,69.7310397 L33.9163643,67.8170397 C32.4583643,67.2000397 30.7123643,67.4830397 29.5253643,68.6710397 C28.3383643,69.8590397 28.0553643,71.6030397 28.6713643,73.0600397 L17.0593643,84.6730397 C15.6033643,84.0560397 13.8573643,84.3390397 12.6703643,85.5270397 C11.4833643,86.7150397 11.2003643,88.4590397 11.8163643,89.9160397 L13.7303643,88.0020397 L16.0003643,88.0020397 L16.0003643,90.1230397 L14.0123643,92.0370397 C15.4693643,92.6520397 17.1773643,92.3690397 18.3643643,91.1830397 C19.5513643,89.9980397 19.7963643,88.2490397 19.1803643,86.7940397 L30.7933643,75.1810397 Z" id="Wrench" stroke="#B0BEC5" fill="#B0BEC5"></path>
            <path d="M27.9194358,73.812033 L17.7460498,83.9862951 C18.665259,84.4390395 19.4168199,85.1802859 19.882551,86.091853 L30.0584737,75.9159303 C29.1385136,75.4640338 28.3860813,74.723315 27.9194358,73.812033 Z" id="Combined-Shape" stroke="#859399" fill="#859399"></path>
            <rect id="Rectangle-6" fill="#657075" transform="translate(23.932995, 79.932995) rotate(-315.000000) translate(-23.932995, -79.932995) " x="23.4329947" y="72.8619269" width="1" height="14.1421356"></rect>
        </g>
    </g>
</svg>
