<?xml version="1.0" encoding="UTF-8" standalone="no"?>
<svg width="48px" height="32px" viewBox="0 0 48 32" version="1.1" xmlns="http://www.w3.org/2000/svg" xmlns:xlink="http://www.w3.org/1999/xlink">
    <!-- Generator: Sketch 3.8.3 (29802) - http://www.bohemiancoding.com/sketch -->
    <title>Contact Icon - Selected</title>
    <desc>Created with Sketch.</desc>
    <defs></defs>
    <g id="Symbols" stroke="none" stroke-width="1" fill="none" fill-rule="evenodd">
        <g id="Contact-Icon---Selected">
            <path d="M24,26.6818182 C22.6789091,26.6818182 21.4004545,26.524 20.1881818,26.2287273 C20.1881818,26.2287273 17.7655455,29.2444545 13.8181818,29.2272727 C15.7279091,26.5176364 15.7247273,24.3444545 15.7247273,24.3444545 C12.2533636,22.1439091 10,18.5949091 10,14.5909091 C10,7.91354545 16.2675455,2.5 24,2.5 C31.7318182,2.5 38,7.91354545 38,14.5909091 C38,21.2682727 31.7318182,26.6818182 24,26.6818182 Z" id="Shape" stroke="#44DB5E" fill="#44DB5E" transform="translate(24.000000, 15.863673) scale(-1, 1) translate(-24.000000, -15.863673) "></path>
            <path d="M10.0000976,14.5452842 C10.0000325,14.5604859 10,14.5756942 10,14.5909091 C10,21.2682727 16.2681818,26.6818182 24,26.6818182 C25.3210909,26.6818182 26.5995455,26.524 27.8118182,26.2287273 C27.8118182,26.2287273 30.2344545,29.2444545 34.1818182,29.2272727 C34.1744164,29.2167706 34.1670433,29.2062765 34.1596988,29.1957905 C32.2330209,28.3142317 30.4798765,27.1367234 28.9632351,25.7240665 C27.4206073,26.2255041 25.7477023,26.5 24,26.5 C16.2856316,26.5 10.0285723,21.1518731 10.0000976,14.5452842 Z" id="Combined-Shape" stroke="#3DC555" stroke-linejoin="round" fill="#3DC654"></path>
            <path d="M23.8532188,12.6640625 C24.9157188,12.6640625 25.5954063,13.5078125 25.5954063,14.84375 C25.5954063,16.1796875 24.9079063,17.03125 23.8375938,17.03125 C22.8141563,17.03125 22.1891563,16.203125 22.1891563,14.84375 C22.1891563,13.4765625 22.8063438,12.6640625 23.8532188,12.6640625 L23.8532188,12.6640625 Z M24.1266563,8.2890625 C20.3297813,8.2890625 17.6735313,10.90625 17.6735313,14.8046875 C17.6735313,19.0078125 20.4469688,21.328125 24.2594688,21.328125 C25.2672813,21.328125 26.2047813,21.1875 26.8922813,20.9453125 L26.8922813,19.9609375 C26.3844688,20.1875 25.3219688,20.3359375 24.2750938,20.3359375 C21.1344688,20.3359375 18.7750938,18.390625 18.7750938,14.8515625 C18.7750938,11.5859375 20.9860313,9.2734375 24.0250938,9.2734375 C27.1344688,9.2734375 29.2907188,11.1875 29.2907188,14.0234375 C29.2907188,16.046875 28.6032188,17.1875 27.6735313,17.1875 C27.0719688,17.1875 26.7907188,16.828125 26.7907188,16.3203125 L26.7907188,11.734375 L25.6110313,11.734375 L25.6110313,12.6875 L25.5485313,12.6875 C25.2516563,12.0234375 24.4938438,11.5859375 23.6579063,11.5859375 C22.0563438,11.5859375 20.9391563,12.9140625 20.9391563,14.8125 C20.9391563,16.796875 22.0329063,18.1328125 23.6579063,18.1328125 C24.5797813,18.1328125 25.3063438,17.6796875 25.6422813,16.890625 L25.7047813,16.890625 C25.7985313,17.671875 26.5641563,18.203125 27.4547813,18.203125 C29.2829063,18.203125 30.3922813,16.5390625 30.3922813,14.0390625 C30.3922813,10.59375 27.7594688,8.2890625 24.1266563,8.2890625 L24.1266563,8.2890625 Z" id="@" fill="#000000"></path>
        </g>
    </g>
</svg>