<?xml version="1.0" encoding="UTF-8" standalone="no"?>
<svg width="48px" height="32px" viewBox="0 0 48 32" version="1.1" xmlns="http://www.w3.org/2000/svg" xmlns:xlink="http://www.w3.org/1999/xlink">
    <!-- Generator: Sketch 3.8.3 (29802) - http://www.bohemiancoding.com/sketch -->
    <title>Resume Icon</title>
    <desc>Created with Sketch.</desc>
    <defs></defs>
    <g id="Symbols" stroke="none" stroke-width="1" fill="none" fill-rule="evenodd">
        <g id="Resume-Icon" stroke="#000000">
            <polygon id="Shape" points="23.9 2 27.5818837 11.5476837 37.8 12.0985116 29.8569581 18.5500512 32.4902 28.4384465 23.9 22.879093 15.3091535 28.4384465 17.9430419 18.5500512 10 12.0985116 20.2181163 11.5476837"></polygon>
            <path d="M31.3305736,5.33919311 L29.3090371,8.33624423 M35.3246107,6.94453273 L31.3619283,10.1534497 M37.6817645,19.128104 L33.6966138,18.2080595 M34.3494281,21.9752451 L32.8413212,21.1045392 M26.1207391,30.3403169 L25.46215,26.1821489 M21.968976,29.5808806 L22.5164966,26.1239714 M12.1233975,22.2560263 L15.1025249,20.5360263 M9.90690539,19.223067 L14.5480335,18.1515782 M13.5067619,7.61776499 L16.6380717,10.1534497 M15.8390378,4.10919286 L18.6903733,8.33647163" id="burst" stroke-width="0.8" stroke-linecap="square"></path>
        </g>
    </g>
</svg>