<?xml version="1.0" encoding="UTF-8" standalone="no"?>
<svg width="48px" height="32px" viewBox="0 0 48 32" version="1.1" xmlns="http://www.w3.org/2000/svg" xmlns:xlink="http://www.w3.org/1999/xlink">
    <!-- Generator: Sketch 3.8.3 (29802) - http://www.bohemiancoding.com/sketch -->
    <title>Work Icon - Selected</title>
    <desc>Created with Sketch.</desc>
    <defs></defs>
    <g id="Symbols" stroke="none" stroke-width="1" fill="none" fill-rule="evenodd">
        <g id="Work-Icon---Selected">
            <g id="Wrench" transform="translate(11.000000, 3.000000)">
                <path d="M19.7933643,8.18103974 C21.2493643,8.79803974 22.9943643,8.51503974 24.1823643,7.32703974 C25.3693643,6.14103974 25.6513643,4.46803974 25.0353643,3.01303974 L23.1223643,5.00103974 L21.0013643,5.00103974 L21.0013643,2.73103974 L22.9163643,0.817039744 C21.4583643,0.200039744 19.7123643,0.483039744 18.5253643,1.67103974 C17.3383643,2.85903974 17.0553643,4.60303974 17.6713643,6.06003974 L6.05936429,17.6730397 C4.60336429,17.0560397 2.85736429,17.3390397 1.67036429,18.5270397 C0.483364291,19.7150397 0.200364291,21.4590397 0.816364291,22.9160397 L2.73036429,21.0020397 L5.00036429,21.0020397 L5.00036429,23.1230397 L3.01236429,25.0370397 C4.46936429,25.6520397 6.17736429,25.3690397 7.36436429,24.1830397 C8.55136429,22.9980397 8.79636429,21.2490397 8.18036429,19.7940397 L19.7933643,8.18103974 Z" stroke="#B0BEC5" fill="#B0BEC5"></path>
                <path d="M16.9194358,6.81203295 L6.74604976,16.9862951 C7.66525899,17.4390395 8.41681989,18.1802859 8.88255101,19.091853 L19.0584737,8.91593032 C18.1385136,8.46403379 17.3860813,7.72331499 16.9194358,6.81203295 Z" id="Combined-Shape" stroke="#859399" fill="#859399"></path>
                <rect id="Rectangle-6" fill="#657075" transform="translate(12.932995, 12.932995) rotate(-315.000000) translate(-12.932995, -12.932995) " x="12.4329947" y="5.86192689" width="1" height="14.1421356"></rect>
            </g>
            <g id="Pencil" transform="translate(12.000000, 4.000000)">
                <path d="M0.587474463,3.41312579 C-0.193296611,2.63235471 -0.198516972,1.37169505 0.587976938,0.585201137 L0.587976938,0.585201137 C1.36902552,-0.195847446 2.63708401,-0.194118912 3.41590159,0.584698662 L22.1067145,19.2755116 L23.8232583,23.8204825 L19.2782874,22.1039387 L0.587474463,3.41312579 L0.587474463,3.41312579 Z" id="Rectangle-22" stroke="#FFB100" fill="#FFB100"></path>
                <path d="M11.8613412,9.03013828 C12.9254783,10.0942754 13.9274972,11.0962943 14.7503183,11.9191153" id="Rectangle-22" stroke="#FF9802"></path>
                <path d="M9.10000038,11.8999996 C10.1641375,12.9641367 11.1661564,13.9661556 11.9889774,14.7889767" id="Rectangle-22" stroke="#FF9802"></path>
                <path d="M0.587976938,0.585201137 C1.36902552,-0.195847446 2.63708401,-0.194118912 3.41590159,0.584698662 L4.1067145,1.27551157 L1.27828737,4.1039387 L0.587474463,3.41312579 C-0.193296611,2.63235471 -0.198516972,1.37169505 0.587976938,0.585201137 Z" id="Rectangle-22" stroke="#FE2851" fill="#FE2851"></path>
                <path d="M4.62,4.58469866 L20.31,20.2755116" id="Rectangle-22" stroke="#000000" stroke-width="0.7" fill="#FFFFFF"></path>
                <polygon id="Rectangle-22" stroke="#A1B0B7" fill="#A2B0B7" points="4.41590159 1.58469866 6.1067145 3.27551157 3.27828737 6.1039387 1.58747446 4.41312579"></polygon>
                <path d="M20.0054322,20.0014038 C21.02771,18.9980469 22.1067145,19.2755116 22.1067145,19.2755116 L23.8232583,23.8204825 L19.2782874,22.1039387 C19.2782874,22.1039387 18.9831543,21.0047608 20.0054322,20.0014038 Z" id="Rectangle-22" stroke="#FFD9B6" fill="#FFEAD7"></path>
                <polygon id="Rectangle-22" stroke="#000000" fill="#000000" points="23.1503463 22.038783 23.8232583 23.8204825 21.9696578 23.120415"></polygon>
            </g>
        </g>
    </g>
</svg>