<?xml version="1.0" encoding="UTF-8" standalone="no"?>
<svg width="48px" height="32px" viewBox="0 0 48 32" version="1.1" xmlns="http://www.w3.org/2000/svg" xmlns:xlink="http://www.w3.org/1999/xlink">
    <!-- Generator: Sketch 3.8.3 (29802) - http://www.bohemiancoding.com/sketch -->
    <title>Work Icon</title>
    <desc>Created with Sketch.</desc>
    <defs></defs>
    <g id="Symbols" stroke="none" stroke-width="1" fill="none" fill-rule="evenodd">
        <g id="Work-Icon" stroke="#000000">
            <path d="M24.2814925,13.4502896 L28.6713643,9.06003974 C28.0553643,7.60303974 28.3383643,5.85903974 29.5253643,4.67103974 C30.7123643,3.48303974 32.4583643,3.20003974 33.9163643,3.81703974 L32.0013643,5.73103974 L32.0013643,8.00103974 L34.1223643,8.00103974 L36.0353643,6.01303974 C36.6513643,7.46803974 36.3693643,9.14103974 35.1823643,10.3270397 C33.9943643,11.5150397 32.2493643,11.7980397 30.7933643,11.1810397 L26.4028035,15.5716006 L24.2814925,13.4502896 Z M21.4531872,16.2788385 L17.0593643,20.6730397 C15.6033643,20.0560397 13.8573643,20.3390397 12.6703643,21.5270397 C11.4833643,22.7150397 11.2003643,24.4590397 11.8163643,25.9160397 L13.7303643,24.0020397 L16.0003643,24.0020397 L16.0003643,26.1230397 L14.0123643,28.0370397 C15.4693643,28.6520397 17.1773643,28.3690397 18.3643643,27.1830397 C19.5513643,25.9980397 19.7963643,24.2490397 19.1803643,22.7940397 L23.5743764,18.4000277 L21.4531872,16.2788385 Z" id="Wrench"></path>
            <g id="Pencil" transform="translate(12.000000, 4.000000)">
                <path d="M0.587474463,3.41312579 C-0.193296611,2.63235471 -0.198516972,1.37169505 0.587976938,0.585201137 L0.587976938,0.585201137 C1.36902552,-0.195847446 2.63708401,-0.194118912 3.41590159,0.584698662 L22.1067145,19.2755116 L23.8232583,23.8204825 L19.2782874,22.1039387 L0.587474463,3.41312579 L0.587474463,3.41312579 Z" id="Rectangle-22" stroke-width="0.9"></path>
                <path d="M4.62,4.58469866 L20.31,20.2755116" id="Rectangle-22" stroke-width="0.7" fill="#FFFFFF"></path>
                <polygon id="Rectangle-22" stroke-width="0.9" points="4.41590159 1.58469866 6.1067145 3.27551157 3.27828737 6.1039387 1.58747446 4.41312579"></polygon>
                <path d="M20.0054322,20.0014038 C21.02771,18.9980469 22.1067145,19.2755116 22.1067145,19.2755116 L23.8232583,23.8204825 L19.2782874,22.1039387 C19.2782874,22.1039387 18.9831543,21.0047608 20.0054322,20.0014038 Z" id="Rectangle-22" stroke-width="0.9" stroke-linejoin="bevel"></path>
            </g>
        </g>
    </g>
</svg>