<?xml version="1.0" encoding="UTF-8" standalone="no"?>
<svg width="48px" height="64px" viewBox="0 0 48 64" version="1.1" xmlns="http://www.w3.org/2000/svg" xmlns:xlink="http://www.w3.org/1999/xlink">
    <!-- Generator: Sketch 3.8.3 (29802) - http://www.bohemiancoding.com/sketch -->
    <title>references-sprite</title>
    <desc>Created with Sketch.</desc>
    <defs></defs>
    <g id="Symbols" stroke="none" stroke-width="1" fill="none" fill-rule="evenodd" stroke-linejoin="round">
        <g id="references-sprite">
            <g id="References-Icon" stroke="#000000">
                <path d="M38,10.8732996 C38,2.16933348 25.5786667,1.49953653 24,10.2035026 C22.4213333,1.49840512 10,2.16820206 10,11.5419651 C10,20.9134653 24,28.7700025 24,28.7700025 C24,28.7700025 38,19.5750028 38,10.8732996 Z" id="Shape"></path>
                <path d="M15.3846154,8.30769231 C14.1527511,8.93049388 13.2307692,10.1862436 13.2307692,11.5384615 C13.2307692,13.8188723 14.1506821,15.4847063 15.3846154,16.9230769" id="Shape"></path>
            </g>
            <g id="References-Icon---Selected" transform="translate(0.000000, 32.000000)">
                <path d="M38,10.8732996 C38,2.16933348 25.5786667,1.49953653 24,10.2035026 C22.4213333,1.49840512 10,2.16820206 10,11.5419651 C10,20.9134653 24,28.7700025 24,28.7700025 C24,28.7700025 38,19.5750028 38,10.8732996 Z" id="Shape" stroke="#FE2851" fill="#FE2851" fill-rule="evenodd"></path>
                <path d="M27.5363326,4.96642994 C31.7331055,2.56189064 38,4.69086862 38,10.8732996 C38,16.8292063 31.4413376,23.0162106 27.3022049,26.3277629 C29.5901238,23.5339763 31,19.7134862 31,15.5003859 C31,11.4329435 29.6859249,7.73143359 27.5363326,4.96642994 Z" id="Combined-Shape" stroke="#F11943" fill="#F11942" fill-rule="evenodd"></path>
                <path d="M15.3846154,8.30769231 C14.1527511,8.93049388 13.2307692,10.1862436 13.2307692,11.5384615 C13.2307692,13.8188723 14.1506821,15.4847063 15.3846154,16.9230769" id="Shape" stroke="#000000"></path>
            </g>
        </g>
    </g>
</svg>